<?xml version="1.0" standalone="no"?>
<!DOCTYPE svg PUBLIC "-//W3C//DTD SVG 20010904//EN"
 "http://www.w3.org/TR/2001/REC-SVG-20010904/DTD/svg10.dtd">
<svg version="1.0" xmlns="http://www.w3.org/2000/svg"
 width="1280.000000pt" height="1217.000000pt" viewBox="0 0 1280.000000 1217.000000"
 preserveAspectRatio="xMidYMid meet">
<metadata>
Created by potrace 1.15, written by Peter Selinger 2001-2017
</metadata>
<g transform="translate(0.000000,1217.000000) scale(0.100000,-0.100000)"
fill="#ffeb3b" stroke="none">
<path d="M5865 10921 c-418 -488 -657 -760 -669 -760 -10 -1 -455 105 -989
234 -534 129 -972 233 -974 231 -2 -1 -37 -450 -78 -996 -41 -546 -76 -994
-78 -996 -3 -3 -338 -139 -1439 -581 -288 -115 -436 -179 -431 -187 3 -6 241
-384 528 -841 287 -456 524 -835 528 -841 4 -7 -231 -389 -521 -850 -290 -462
-531 -844 -535 -850 -4 -8 52 -36 166 -82 289 -118 1599 -644 1654 -665 l52
-19 6 -62 c3 -33 35 -455 70 -936 74 -1001 74 -1000 85 -1000 9 0 78 16 1144
275 443 107 810 195 815 195 5 0 303 -342 661 -760 359 -419 656 -760 661
-758 4 2 297 341 649 753 353 413 647 754 653 758 7 5 403 -86 991 -228 603
-146 981 -233 985 -227 3 6 39 453 79 994 41 540 77 986 81 990 4 4 423 175
931 379 509 205 929 375 933 379 5 4 -228 383 -517 842 -289 459 -528 842
-532 851 -4 11 163 285 526 863 387 614 529 848 520 854 -7 4 -431 176 -941
381 -887 356 -929 375 -929 399 -1 64 -147 1960 -151 1965 -4 4 -1916 -455
-1956 -470 -7 -2 -299 331 -665 760 -359 420 -655 764 -658 764 -3 1 -298
-341 -655 -758z"/>
</g>
</svg>
