<?xml version="1.0" standalone="no"?>
<!DOCTYPE svg PUBLIC "-//W3C//DTD SVG 20010904//EN"
 "http://www.w3.org/TR/2001/REC-SVG-20010904/DTD/svg10.dtd">
<svg version="1.0" xmlns="http://www.w3.org/2000/svg"
 width="736.000000pt" height="414.000000pt" viewBox="0 0 736.000000 414.000000"
 preserveAspectRatio="xMidYMid meet">

<g transform="translate(0.000000,414.000000) scale(0.100000,-0.100000)"
fill="#000000" stroke="none">
<path d="M0 4102 c0 -37 2 -40 73 -80 39 -22 83 -45 97 -51 14 -5 18 -10 10
-10 -9 -1 -51 19 -94 44 -44 25 -81 45 -82 45 -2 0 -3 -73 -3 -162 1 -114 4
-156 11 -138 5 13 7 43 4 65 l-5 40 11 -33 c9 -27 8 -44 -5 -86 -11 -33 -17
-87 -17 -145 0 -91 0 -92 21 -80 45 24 114 97 169 180 32 47 70 93 84 102 79
52 267 -21 701 -271 338 -195 436 -232 619 -232 121 0 220 22 365 80 206 81
305 97 495 80 206 -20 240 -3 331 162 122 223 188 273 502 379 162 55 317 121
329 141 9 14 -70 8 -96 -7 -14 -8 -29 -14 -35 -14 -5 0 1 6 15 14 22 12 -7 14
-240 14 -173 0 -260 -3 -250 -9 8 -5 24 -10 35 -11 16 -1 17 -2 3 -6 -9 -2
-30 3 -47 11 -23 12 -62 16 -165 16 l-135 0 -133 -104 c-151 -117 -211 -178
-239 -241 -23 -52 -16 -79 31 -118 36 -31 32 -35 -7 -10 -38 25 -55 72 -42
117 14 49 111 151 229 241 52 40 103 82 114 93 l19 21 -372 1 c-204 0 -371 -2
-371 -5 0 -3 19 -27 42 -53 40 -45 39 -45 -11 6 l-52 52 -131 0 -130 0 4 -97
c6 -153 27 -194 159 -325 60 -59 111 -119 115 -132 13 -53 -27 -117 -101 -162
-36 -21 -23 -8 26 28 38 29 69 81 69 119 0 16 -34 57 -113 135 -138 137 -159
179 -165 337 l-4 97 -113 0 -112 0 8 -42 c4 -24 8 -70 7 -103 -1 -54 -2 -50
-9 30 -5 50 -11 96 -14 103 -3 8 -32 12 -95 12 l-90 0 0 -30 c0 -56 -22 -131
-47 -160 -14 -17 -29 -30 -33 -30 -5 0 4 13 20 28 28 28 50 100 50 162 l0 30
-257 0 -258 0 55 -53 c30 -29 69 -63 85 -75 25 -19 26 -21 5 -11 -14 7 -55 41
-91 76 -65 62 -66 63 -122 63 -31 0 -57 -3 -57 -7 0 -5 22 -38 50 -75 55 -75
150 -158 240 -209 80 -45 106 -65 50 -38 -122 59 -279 195 -332 289 -23 40
-23 40 -85 40 -35 0 -63 -2 -63 -5 0 -2 11 -29 24 -59 31 -70 78 -138 129
-188 55 -53 196 -147 296 -198 45 -22 81 -42 81 -45 0 -11 -167 80 -253 137
-129 86 -196 159 -249 268 l-43 89 -57 1 -58 0 0 -33 c0 -50 -28 -134 -47
-141 -16 -6 -16 -5 -1 11 19 22 38 86 38 131 l0 32 -145 0 -145 0 0 -38z
m2404 13 c-17 -8 -44 -16 -60 -20 -16 -3 -6 4 21 14 57 22 86 26 39 6z m873 9
c-3 -3 -12 -4 -19 -1 -8 3 -5 6 6 6 11 1 17 -2 13 -5z m-59 -11 c-10 -2 -26
-2 -35 0 -10 3 -2 5 17 5 19 0 27 -2 18 -5z m242 -13 c-8 -5 -19 -10 -25 -10
-5 0 -3 5 5 10 8 5 20 10 25 10 6 0 3 -5 -5 -10z m-1165 -20 c-11 -5 -27 -9
-35 -9 -9 0 -8 4 5 9 11 5 27 9 35 9 9 0 8 -4 -5 -9z m-90 -30 c-22 -10 -44
-18 -50 -18 -5 0 8 8 30 19 22 10 45 18 50 18 6 0 -8 -9 -30 -19z m1082 -6
c-3 -3 -12 -4 -19 -1 -8 3 -5 6 6 6 11 1 17 -2 13 -5z m-1232 -14 c13 -6 15
-9 5 -9 -8 0 -22 4 -30 9 -18 12 -2 12 25 0z m1192 4 c-3 -3 -12 -4 -19 -1 -8
3 -5 6 6 6 11 1 17 -2 13 -5z m-1110 -10 c-3 -3 -12 -4 -19 -1 -8 3 -5 6 6 6
11 1 17 -2 13 -5z m1040 -10 c-3 -3 -12 -4 -19 -1 -8 3 -5 6 6 6 11 1 17 -2
13 -5z m-40 -10 c-3 -3 -12 -4 -19 -1 -8 3 -5 6 6 6 11 1 17 -2 13 -5z m-2242
-32 c-3 -3 -11 0 -18 7 -9 10 -8 11 6 5 10 -3 15 -9 12 -12z m2160 8 c-27 -12
-43 -12 -25 0 8 5 22 9 30 9 10 0 8 -3 -5 -9z m-2104 -25 c19 -8 27 -14 19
-14 -14 0 -72 28 -59 29 4 0 22 -7 40 -15z m2049 5 c-8 -5 -19 -10 -25 -10 -5
0 -3 5 5 10 8 5 20 10 25 10 6 0 3 -5 -5 -10z m-2773 -6 c-3 -3 -12 -4 -19 -1
-8 3 -5 6 6 6 11 1 17 -2 13 -5z m2684 -34 c-30 -17 -98 -73 -152 -125 -91
-88 -179 -155 -203 -155 -6 0 12 13 39 29 28 16 94 72 148 125 86 85 183 156
212 156 6 0 -14 -14 -44 -30z m-1894 14 c-3 -3 -12 -4 -19 -1 -8 3 -5 6 6 6
11 1 17 -2 13 -5z m40 -10 c-3 -3 -12 -4 -19 -1 -8 3 -5 6 6 6 11 1 17 -2 13
-5z m60 -10 c-3 -3 -12 -4 -19 -1 -8 3 -5 6 6 6 11 1 17 -2 13 -5z m320 -41
c-3 -10 -5 -2 -5 17 0 19 2 27 5 18 2 -10 2 -26 0 -35z m-16 -111 c-11 -39
-54 -92 -75 -92 -6 0 0 7 13 16 29 21 60 87 62 134 2 29 3 31 6 8 2 -14 -1
-44 -6 -66z m-401 3 c14 -8 21 -14 15 -14 -5 0 -21 6 -35 14 -14 8 -20 14 -15
14 6 0 21 -6 35 -14z m104 -41 c17 -7 24 -13 16 -13 -8 0 -33 9 -55 20 -43 20
-11 15 39 -7z m123 -40 c-3 -3 -12 -4 -19 -1 -8 3 -5 6 6 6 11 1 17 -2 13 -5z
m-129 -126 c56 -33 102 -62 102 -65 0 -3 -17 5 -37 17 -21 13 -77 45 -125 72
-49 28 -88 52 -88 54 0 6 27 -8 148 -78z m1345 75 c-7 -2 -19 -2 -25 0 -7 3
-2 5 12 5 14 0 19 -2 13 -5z m64 1 c-3 -3 -12 -4 -19 -1 -8 3 -5 6 6 6 11 1
17 -2 13 -5z m-1151 -222 c-5 -4 -146 66 -146 73 0 3 34 -12 75 -32 41 -20 73
-39 71 -41z m44 -12 c8 -5 11 -10 5 -10 -5 0 -17 5 -25 10 -8 5 -10 10 -5 10
6 0 17 -5 25 -10z m360 0 c-8 -5 -19 -10 -25 -10 -5 0 -3 5 5 10 8 5 20 10 25
10 6 0 3 -5 -5 -10z m-313 -16 c-3 -3 -12 -4 -19 -1 -8 3 -5 6 6 6 11 1 17 -2
13 -5z m40 -10 c-3 -3 -12 -4 -19 -1 -8 3 -5 6 6 6 11 1 17 -2 13 -5z m200 0
c-3 -3 -12 -4 -19 -1 -8 3 -5 6 6 6 11 1 17 -2 13 -5z m-80 -11 c-20 -2 -52
-2 -70 0 -17 2 0 4 38 4 39 0 53 -2 32 -4z"/>
<path d="M3655 4119 c-68 -46 -176 -93 -341 -149 -304 -103 -383 -161 -488
-353 -73 -135 -95 -161 -153 -183 -52 -20 -106 -22 -278 -10 -147 11 -222 -3
-393 -70 -64 -25 -148 -54 -187 -65 -94 -26 -244 -35 -340 -20 -146 24 -226
61 -606 278 -213 122 -429 223 -509 238 -45 8 -79 -17 -128 -94 -55 -88 -115
-153 -175 -191 l-56 -35 -1 -103 c0 -102 0 -103 23 -98 l22 6 -23 -11 c-19
-11 -22 -20 -22 -75 l0 -63 42 19 c69 30 203 46 274 32 95 -19 217 -85 289
-157 75 -74 116 -146 191 -331 109 -266 142 -300 345 -353 228 -59 314 -97
403 -180 154 -144 116 -323 -89 -417 -51 -24 -66 -26 -144 -22 -150 7 -228 64
-355 258 -83 128 -109 157 -161 181 -55 25 -118 24 -281 -8 -103 -20 -169 -27
-254 -27 -112 1 -135 5 -242 49 -15 6 -18 1 -18 -28 0 -19 6 -38 13 -40 9 -4
9 -6 0 -6 -9 -1 -12 -52 -13 -196 0 -184 1 -195 19 -195 10 0 52 -16 92 -37
138 -68 275 -234 479 -584 119 -204 192 -274 440 -420 172 -102 269 -197 334
-329 44 -88 48 -99 42 -150 -3 -30 -14 -82 -26 -114 -11 -33 -20 -61 -20 -63
0 -1 17 -3 39 -3 38 0 38 0 45 46 35 262 -54 410 -374 624 -271 181 -337 250
-479 500 -57 100 -131 216 -165 257 -33 42 -76 95 -94 117 -44 55 -92 154 -92
191 0 37 19 66 63 96 27 19 25 16 -10 -19 -33 -32 -43 -49 -43 -74 0 -49 50
-144 116 -222 90 -105 149 -190 216 -311 84 -154 158 -261 220 -322 50 -49
138 -113 335 -248 136 -93 234 -195 280 -291 l38 -79 0 -132 0 -133 44 0 44 0
-6 108 c-4 72 -13 128 -27 170 -51 146 -190 301 -430 479 -213 158 -272 229
-420 503 -40 74 -100 177 -133 228 -43 67 -61 105 -65 138 -5 48 10 89 37 99
10 4 7 -3 -8 -19 -20 -21 -23 -33 -19 -75 4 -39 17 -68 60 -133 30 -46 88
-144 128 -218 147 -274 224 -371 389 -490 370 -266 501 -451 501 -707 l0 -83
35 0 c19 0 35 1 35 3 0 1 -7 36 -15 79 -62 323 -105 389 -441 676 -73 61 -153
135 -179 164 -65 72 -117 182 -119 252 -2 96 52 126 225 126 51 0 155 7 232
16 78 9 183 14 236 12 163 -7 219 -46 381 -263 254 -339 423 -412 785 -335
212 45 323 38 436 -28 104 -60 166 -130 243 -272 37 -69 93 -163 126 -210 60
-87 85 -151 74 -195 l-6 -25 313 0 314 0 -25 21 c-22 18 -22 19 -3 10 12 -6
25 -16 28 -21 4 -6 96 -10 241 -10 169 0 233 3 228 11 -5 8 -1 8 14 0 13 -7
107 -11 266 -11 l246 0 0 56 c0 63 -10 89 -48 122 -19 17 -21 21 -7 14 44 -22
59 -51 63 -123 l4 -69 175 0 175 0 52 47 c110 99 237 161 309 150 18 -2 131
-30 252 -61 214 -55 287 -84 302 -121 4 -13 68 -15 434 -15 l429 0 0 2070 c0
1139 -3 2070 -6 2070 -4 0 -26 -17 -49 -39 -23 -21 -53 -44 -66 -50 -24 -11
-24 -11 1 6 14 10 41 33 60 50 l35 32 -99 1 -98 0 -55 -50 c-47 -43 -164 -111
-189 -110 -5 1 23 16 63 35 39 19 93 55 120 80 l48 44 -91 1 c-80 0 -93 -3
-110 -21 -23 -25 -89 -64 -124 -73 -14 -4 2 7 36 23 33 17 69 40 79 51 l18 20
-216 0 c-202 0 -216 -1 -210 -17 11 -31 31 -55 60 -74 15 -11 23 -19 17 -19
-21 0 -66 43 -80 77 -14 32 -16 33 -69 33 -49 0 -55 -2 -55 -20 0 -28 33 -90
62 -117 12 -12 43 -31 68 -42 25 -11 39 -21 32 -21 -55 -1 -158 99 -168 162
-6 37 -8 38 -50 38 -32 0 -44 -4 -47 -17 -4 -17 -5 -17 -6 0 -1 14 -11 17 -71
17 l-70 0 7 -27 c12 -52 55 -147 83 -187 39 -57 76 -90 140 -125 62 -34 61
-42 -1 -11 -95 49 -179 157 -219 279 -20 62 -26 71 -46 71 -29 0 -30 -10 -3
-80 61 -160 148 -273 250 -324 30 -15 43 -24 29 -20 -44 11 -119 65 -165 117
-47 54 -101 156 -131 249 -19 57 -20 58 -56 58 l-37 0 40 -97 c61 -146 106
-221 173 -288 34 -33 47 -50 30 -37 -76 53 -130 134 -199 295 -47 109 -56 122
-79 125 l-27 3 17 -38 c9 -21 34 -80 56 -132 82 -194 128 -264 222 -333 52
-38 36 -36 -20 3 -45 31 -108 106 -140 169 -9 19 -46 100 -80 180 l-63 145
-41 3 c-23 2 -40 0 -38 -5 2 -4 22 -44 44 -88 23 -44 58 -127 79 -185 52 -146
100 -233 154 -282 25 -22 37 -36 25 -30 -64 33 -127 138 -189 312 -20 58 -58
144 -83 193 -45 86 -46 87 -84 87 -21 0 -38 -3 -38 -6 0 -3 12 -20 26 -37 38
-45 81 -136 120 -254 56 -165 58 -262 7 -309 -14 -13 -30 -24 -35 -24 -4 0 6
13 24 29 32 29 33 31 32 113 0 68 -7 102 -37 192 -41 121 -82 204 -128 259
-29 36 -33 37 -96 37 l-66 0 45 -43 c122 -117 185 -283 144 -381 -16 -39 -69
-82 -111 -90 l-30 -6 30 11 c85 33 120 89 112 179 -7 84 -56 178 -134 261
l-65 69 -82 0 -81 0 35 -27 c61 -46 155 -147 173 -185 23 -50 22 -119 -3 -151
-29 -36 -95 -64 -175 -74 -109 -14 -481 -10 -543 6 -147 36 -235 160 -249 354
-6 77 -6 77 -35 77 -32 0 -31 16 -7 -153 6 -43 9 -81 6 -83 -3 -3 -10 35 -16
83 -22 164 -18 153 -56 153 -32 0 -34 -1 -29 -32 59 -430 47 -516 -81 -594
-36 -22 -23 -8 27 29 79 58 94 158 62 421 -21 176 -21 176 -44 176 -18 0 -19
-4 -12 -47 4 -27 7 -122 7 -213 0 -160 -1 -167 -27 -215 -35 -67 -83 -113
-203 -199 -154 -109 -248 -204 -293 -295 -33 -67 -37 -83 -37 -150 0 -63 5
-85 28 -129 38 -72 92 -129 180 -190 146 -100 280 -153 392 -153 85 -1 135 17
188 69 94 91 116 169 121 429 4 211 14 262 67 326 62 76 165 107 342 106 150
-1 297 -24 452 -70 135 -41 214 -118 275 -268 92 -229 241 -274 604 -181 170
44 394 87 511 99 155 16 265 20 265 10 0 -5 -30 -9 -68 -9 -150 0 -403 -39
-647 -101 -167 -43 -267 -59 -357 -59 -157 0 -256 68 -318 217 -84 202 -151
257 -375 304 -212 45 -353 57 -465 40 -94 -15 -147 -38 -193 -86 -58 -60 -68
-102 -77 -345 -9 -238 -18 -286 -73 -367 -37 -53 -109 -107 -165 -123 -116
-32 -280 14 -458 128 -260 167 -319 367 -171 575 53 74 119 133 268 240 160
115 201 170 219 296 9 67 0 275 -16 337 -9 36 -51 34 -57 -3 l-4 -28 -2 28
c-1 20 -6 27 -22 27 -19 0 -21 -4 -14 -37 37 -194 15 -330 -71 -443 -21 -28
-76 -83 -124 -122 -338 -288 -478 -511 -413 -659 43 -97 134 -171 398 -324
326 -189 461 -237 577 -205 109 31 210 207 238 414 6 39 14 136 19 216 14 212
40 269 146 321 110 54 214 51 378 -13 118 -45 183 -113 263 -272 32 -65 76
-138 97 -162 81 -92 228 -133 412 -114 115 12 137 17 395 85 280 74 363 89
505 89 128 0 175 -7 175 -27 0 -10 -19 -10 -87 -3 -125 14 -269 -5 -502 -66
-355 -92 -389 -99 -526 -105 -144 -6 -209 3 -292 42 -83 38 -133 96 -208 244
-67 133 -124 204 -186 237 -221 114 -429 93 -499 -50 -17 -37 -24 -80 -36
-238 -8 -106 -24 -231 -35 -278 -38 -160 -126 -297 -216 -335 -24 -11 -66 -17
-115 -16 -134 0 -252 51 -593 254 -325 193 -400 296 -344 470 45 141 168 292
410 504 171 150 211 222 213 383 0 52 -6 121 -13 153 -12 55 -13 57 -45 57
l-33 0 20 -57 c14 -41 20 -84 20 -143 0 -161 -56 -251 -277 -446 -78 -68 -179
-170 -226 -226 -162 -192 -215 -251 -240 -266 -14 -9 -4 4 21 29 26 24 103
112 172 194 79 95 170 190 248 260 209 185 267 264 290 393 12 68 1 160 -26
226 -15 35 -17 36 -71 36 l-56 0 35 -40 c45 -52 61 -112 55 -199 -7 -90 -46
-164 -141 -261 -286 -293 -499 -490 -530 -490 -5 0 14 15 42 34 27 19 164 148
303 288 302 302 313 317 313 453 0 74 -4 98 -22 132 -35 64 -69 83 -149 83
-61 0 -75 -4 -153 -46 -47 -26 -82 -43 -78 -38 4 4 38 25 75 46 l67 38 -65 0
c-49 0 -72 -5 -95 -21 -39 -26 -85 -51 -85 -45 0 2 20 16 45 30 25 15 45 29
45 31 0 15 -89 2 -115 -16z m2700 -147 c15 -18 51 -46 79 -62 28 -17 46 -30
40 -30 -19 0 -99 56 -127 90 -31 36 -67 102 -67 122 0 7 11 -9 24 -37 12 -27
35 -65 51 -83z m-107 33 c41 -78 113 -141 199 -176 30 -13 37 -18 18 -14 -46
9 -133 65 -175 113 -41 46 -81 121 -79 149 0 12 3 9 8 -7 5 -14 18 -43 29 -65z
m-1839 -75 c2 -197 -34 -260 -256 -452 -169 -145 -247 -231 -304 -333 -31 -54
-34 -68 -34 -140 0 -65 5 -90 25 -130 33 -68 143 -174 245 -236 90 -55 118
-80 38 -34 -136 78 -234 167 -289 260 -26 45 -29 59 -29 135 0 78 3 90 34 148
49 91 130 182 261 295 220 189 252 227 285 342 14 47 17 85 13 180 -3 66 -2
107 2 90 4 -16 8 -73 9 -125z m-739 135 c0 -6 -117 -65 -127 -65 -4 1 21 16
57 35 72 38 70 37 70 30z m100 -20 c0 -6 -197 -105 -207 -104 -6 0 194 106
205 108 1 1 2 -1 2 -4z m2997 -11 c-3 -3 -12 -4 -19 -1 -8 3 -5 6 6 6 11 1 17
-2 13 -5z m443 1 c0 -6 -76 -45 -87 -45 -4 1 12 12 37 25 50 27 50 27 50 20z
m-577 -12 c-7 -2 -19 -2 -25 0 -7 3 -2 5 12 5 14 0 19 -2 13 -5z m90 0 c-7 -2
-19 -2 -25 0 -7 3 -2 5 12 5 14 0 19 -2 13 -5z m-2790 -30 c-7 -2 -21 -2 -30
0 -10 3 -4 5 12 5 17 0 24 -2 18 -5z m74 1 c-3 -3 -12 -4 -19 -1 -8 3 -5 6 6
6 11 1 17 -2 13 -5z m-542 -28 c-53 -25 -103 -42 -95 -33 7 8 123 55 135 55 6
0 -12 -10 -40 -22z m395 9 c-14 -8 -29 -14 -35 -14 -5 0 1 6 15 14 14 8 30 14
35 14 6 0 -1 -6 -15 -14z m196 -6 c14 -16 19 -36 19 -83 0 -95 -36 -147 -256
-366 -138 -138 -201 -194 -246 -218 -34 -17 -67 -32 -74 -32 -8 0 14 13 49 30
50 24 95 61 215 177 83 82 175 174 203 207 108 122 134 240 65 293 -9 7 -11
13 -5 13 6 0 19 -9 30 -21z m3044 11 c-8 -5 -19 -10 -25 -10 -5 0 -3 5 5 10 8
5 20 10 25 10 6 0 3 -5 -5 -10z m180 0 c-8 -5 -19 -10 -25 -10 -5 0 -3 5 5 10
8 5 20 10 25 10 6 0 3 -5 -5 -10z m-230 -20 c-8 -5 -19 -10 -25 -10 -5 0 -3 5
5 10 8 5 20 10 25 10 6 0 3 -5 -5 -10z m-3245 -10 c-3 -5 -12 -10 -18 -10 -7
0 -6 4 3 10 19 12 23 12 15 0z m3012 4 c-3 -3 -12 -4 -19 -1 -8 3 -5 6 6 6 11
1 17 -2 13 -5z m-40 -10 c-3 -3 -12 -4 -19 -1 -8 3 -5 6 6 6 11 1 17 -2 13 -5z
m207 -9 c-17 -8 -44 -16 -60 -20 -16 -3 -6 4 21 14 57 22 86 26 39 6z m-3234
-10 c-14 -8 -29 -14 -35 -14 -5 0 1 6 15 14 14 8 30 14 35 14 6 0 -1 -6 -15
-14z m2843 8 c-7 -2 -19 -2 -25 0 -7 3 -2 5 12 5 14 0 19 -2 13 -5z m134 1
c-3 -3 -12 -4 -19 -1 -8 3 -5 6 6 6 11 1 17 -2 13 -5z m-3377 -14 c-8 -5 -19
-10 -25 -10 -5 0 -3 5 5 10 8 5 20 10 25 10 6 0 3 -5 -5 -10z m170 0 c-8 -5
-19 -10 -25 -10 -5 0 -3 5 5 10 8 5 20 10 25 10 6 0 3 -5 -5 -10z m-60 -24
c-14 -7 -36 -16 -50 -20 -14 -3 -7 3 15 13 45 22 73 27 35 7z m3857 8 c-3 -3
-12 -4 -19 -1 -8 3 -5 6 6 6 11 1 17 -2 13 -5z m-3657 -14 c-8 -5 -19 -10 -25
-10 -5 0 -3 5 5 10 8 5 20 10 25 10 6 0 3 -5 -5 -10z m3175 0 c-11 -5 -27 -9
-35 -9 -9 0 -8 4 5 9 11 5 27 9 35 9 9 0 8 -4 -5 -9z m180 0 c-27 -12 -43 -12
-25 0 8 5 22 9 30 9 10 0 8 -3 -5 -9z m242 4 c-3 -3 -12 -4 -19 -1 -8 3 -5 6
6 6 11 1 17 -2 13 -5z m-4070 -47 c-116 -63 -170 -114 -213 -203 -34 -68 -38
-84 -38 -158 -1 -73 3 -89 32 -148 56 -115 240 -281 370 -334 31 -13 50 -24
42 -24 -54 0 -242 130 -335 232 -161 179 -163 380 -5 539 48 49 188 139 215
139 6 0 -25 -19 -68 -43z m1493 -127 c11 -16 35 -41 53 -54 18 -14 27 -26 21
-26 -7 0 -30 18 -52 39 -30 30 -46 57 -61 106 -12 37 -21 77 -20 89 0 11 9
-12 19 -52 11 -40 29 -86 40 -102z m2537 164 c-3 -3 -12 -4 -19 -1 -8 3 -5 6
6 6 11 1 17 -2 13 -5z m-450 -10 c-3 -3 -12 -4 -19 -1 -8 3 -5 6 6 6 11 1 17
-2 13 -5z m183 -4 c-8 -5 -19 -10 -25 -10 -5 0 -3 5 5 10 8 5 20 10 25 10 6 0
3 -5 -5 -10z m227 4 c-3 -3 -12 -4 -19 -1 -8 3 -5 6 6 6 11 1 17 -2 13 -5z
m-3807 -14 c-8 -5 -19 -10 -25 -10 -5 0 -3 5 5 10 8 5 20 10 25 10 6 0 3 -5
-5 -10z m210 0 c-8 -5 -19 -10 -25 -10 -5 0 -3 5 5 10 8 5 20 10 25 10 6 0 3
-5 -5 -10z m2967 4 c-3 -3 -12 -4 -19 -1 -8 3 -5 6 6 6 11 1 17 -2 13 -5z
m156 -1 c-7 -2 -19 -2 -25 0 -7 3 -2 5 12 5 14 0 19 -2 13 -5z m434 1 c-3 -3
-12 -4 -19 -1 -8 3 -5 6 6 6 11 1 17 -2 13 -5z m-494 -11 c-13 -2 -33 -2 -45
0 -13 2 -3 4 22 4 25 0 35 -2 23 -4z m264 1 c-3 -3 -12 -4 -19 -1 -8 3 -5 6 6
6 11 1 17 -2 13 -5z m-3637 -39 c-175 -89 -246 -218 -206 -373 40 -156 134
-254 287 -297 42 -12 46 -14 17 -11 -105 13 -227 105 -281 212 -72 143 -55
286 46 384 44 42 169 120 192 119 6 0 -19 -15 -55 -34z m250 23 c-271 -117
-344 -184 -344 -318 0 -55 -1 -60 -8 -32 -6 21 -5 55 2 89 19 91 102 163 278
239 42 19 82 34 87 33 6 0 -1 -5 -15 -11z m3535 2 c-11 -5 -27 -9 -35 -9 -9 0
-8 4 5 9 11 5 27 9 35 9 9 0 8 -4 -5 -9z m238 3 c-7 -2 -19 -2 -25 0 -7 3 -2
5 12 5 14 0 19 -2 13 -5z m-466 -9 c-3 -3 -12 -4 -19 -1 -8 3 -5 6 6 6 11 1
17 -2 13 -5z m420 0 c-3 -3 -12 -4 -19 -1 -8 3 -5 6 6 6 11 1 17 -2 13 -5z
m-470 -10 c-3 -3 -12 -4 -19 -1 -8 3 -5 6 6 6 11 1 17 -2 13 -5z m208 -4 c-11
-5 -27 -9 -35 -9 -9 0 -8 4 5 9 11 5 27 9 35 9 9 0 8 -4 -5 -9z m212 4 c-3 -3
-12 -4 -19 -1 -8 3 -5 6 6 6 11 1 17 -2 13 -5z m-464 -11 c-7 -2 -19 -2 -25 0
-7 3 -2 5 12 5 14 0 19 -2 13 -5z m424 1 c-3 -3 -12 -4 -19 -1 -8 3 -5 6 6 6
11 1 17 -2 13 -5z m-3394 -11 c-7 -2 -19 -2 -25 0 -7 3 -2 5 12 5 14 0 19 -2
13 -5z m81 -12 c24 -27 15 -65 -34 -140 -49 -76 -173 -203 -220 -225 -19 -9
-27 -11 -16 -4 127 85 275 268 276 340 0 9 -10 24 -22 32 -12 9 -18 16 -12 16
6 0 19 -9 28 -19z m2789 12 c-24 -2 -62 -2 -85 0 -24 2 -5 4 42 4 47 0 66 -2
43 -4z m282 -3 c-11 -5 -27 -9 -35 -9 -9 0 -8 4 5 9 11 5 27 9 35 9 9 0 8 -4
-5 -9z m202 4 c-3 -3 -12 -4 -19 -1 -8 3 -5 6 6 6 11 1 17 -2 13 -5z m-3410
-10 c-3 -3 -12 -4 -19 -1 -8 3 -5 6 6 6 11 1 17 -2 13 -5z m-50 -10 c-3 -3
-12 -4 -19 -1 -8 3 -5 6 6 6 11 1 17 -2 13 -5z m3200 0 c-3 -3 -12 -4 -19 -1
-8 3 -5 6 6 6 11 1 17 -2 13 -5z m-3240 -10 c-3 -3 -12 -4 -19 -1 -8 3 -5 6 6
6 11 1 17 -2 13 -5z m3200 0 c-3 -3 -12 -4 -19 -1 -8 3 -5 6 6 6 11 1 17 -2
13 -5z m178 -4 c-11 -5 -27 -9 -35 -9 -9 0 -8 4 5 9 11 5 27 9 35 9 9 0 8 -4
-5 -9z m258 3 c-7 -2 -19 -2 -25 0 -7 3 -2 5 12 5 14 0 19 -2 13 -5z m-476 -9
c-3 -3 -12 -4 -19 -1 -8 3 -5 6 6 6 11 1 17 -2 13 -5z m416 -1 c-7 -2 -19 -2
-25 0 -7 3 -2 5 12 5 14 0 19 -2 13 -5z m-3694 -26 c-71 -28 -138 -71 -163
-104 -11 -15 -26 -49 -33 -77 l-13 -51 5 45 c3 24 15 59 26 76 30 49 169 133
219 133 8 0 -10 -10 -41 -22z m2978 17 c-3 -3 -12 -4 -19 -1 -8 3 -5 6 6 6 11
1 17 -2 13 -5z m246 -1 c-7 -2 -19 -2 -25 0 -7 3 -2 5 12 5 14 0 19 -2 13 -5z
m202 -3 c-11 -5 -27 -9 -35 -9 -9 0 -8 4 5 9 11 5 27 9 35 9 9 0 8 -4 -5 -9z
m212 4 c-3 -3 -12 -4 -19 -1 -8 3 -5 6 6 6 11 1 17 -2 13 -5z m-504 -11 c-23
-2 -64 -2 -90 0 -26 2 -7 3 42 3 50 0 71 -1 48 -3z m460 0 c-7 -2 -19 -2 -25
0 -7 3 -2 5 12 5 14 0 19 -2 13 -5z m-226 -9 c-3 -3 -12 -4 -19 -1 -8 3 -5 6
6 6 11 1 17 -2 13 -5z m-52 -14 c-11 -5 -29 -8 -40 -8 -16 0 -15 2 5 8 34 11
60 11 35 0z m463 3 c-16 -2 -40 -2 -55 0 -16 2 -3 4 27 4 30 0 43 -2 28 -4z
m59 1 c-3 -3 -12 -4 -19 -1 -8 3 -5 6 6 6 11 1 17 -2 13 -5z m-164 -11 c-7 -2
-19 -2 -25 0 -7 3 -2 5 12 5 14 0 19 -2 13 -5z m-746 -9 c-3 -3 -12 -4 -19 -1
-8 3 -5 6 6 6 11 1 17 -2 13 -5z m310 0 c-3 -3 -12 -4 -19 -1 -8 3 -5 6 6 6
11 1 17 -2 13 -5z m358 -4 c-11 -5 -29 -8 -40 -8 -16 0 -15 2 5 8 34 11 60 11
35 0z m-795 -26 c0 -2 -9 0 -20 6 -11 6 -20 13 -20 16 0 2 9 0 20 -6 11 -6 20
-13 20 -16z m167 20 c-3 -3 -12 -4 -19 -1 -8 3 -5 6 6 6 11 1 17 -2 13 -5z
m216 -1 c-7 -2 -21 -2 -30 0 -10 3 -4 5 12 5 17 0 24 -2 18 -5z m224 1 c-3 -3
-12 -4 -19 -1 -8 3 -5 6 6 6 11 1 17 -2 13 -5z m-52 -14 c-11 -5 -27 -9 -35
-9 -9 0 -8 4 5 9 11 5 27 9 35 9 9 0 8 -4 -5 -9z m160 0 c-11 -5 -27 -9 -35
-9 -9 0 -8 4 5 9 11 5 27 9 35 9 9 0 8 -4 -5 -9z m-228 -16 c-3 -3 -12 -4 -19
-1 -8 3 -5 6 6 6 11 1 17 -2 13 -5z m170 0 c-3 -3 -12 -4 -19 -1 -8 3 -5 6 6
6 11 1 17 -2 13 -5z m-210 -10 c-3 -3 -12 -4 -19 -1 -8 3 -5 6 6 6 11 1 17 -2
13 -5z m556 -1 c-24 -2 -62 -2 -85 0 -24 2 -5 4 42 4 47 0 66 -2 43 -4z m-606
-9 c-3 -3 -12 -4 -19 -1 -8 3 -5 6 6 6 11 1 17 -2 13 -5z m446 -1 c-7 -2 -19
-2 -25 0 -7 3 -2 5 12 5 14 0 19 -2 13 -5z m-2338 -13 c13 -6 15 -9 5 -9 -8 0
-22 4 -30 9 -18 12 -2 12 25 0z m1642 4 c-3 -3 -12 -4 -19 -1 -8 3 -5 6 6 6
11 1 17 -2 13 -5z m186 -1 c-7 -2 -21 -2 -30 0 -10 3 -4 5 12 5 17 0 24 -2 18
-5z m202 -3 c-27 -12 -43 -12 -25 0 8 5 22 9 30 9 10 0 8 -3 -5 -9z m252 4
c-3 -3 -12 -4 -19 -1 -8 3 -5 6 6 6 11 1 17 -2 13 -5z m-534 -11 c-7 -2 -21
-2 -30 0 -10 3 -4 5 12 5 17 0 24 -2 18 -5z m490 0 c-7 -2 -19 -2 -25 0 -7 3
-2 5 12 5 14 0 19 -2 13 -5z m-1750 -10 c-84 -2 -222 -2 -305 0 -84 1 -16 3
152 3 168 0 236 -2 153 -3z m325 0 c-10 -2 -26 -2 -35 0 -10 3 -2 5 17 5 19 0
27 -2 18 -5z m1159 1 c-3 -3 -12 -4 -19 -1 -8 3 -5 6 6 6 11 1 17 -2 13 -5z
m-487 -14 c8 -5 11 -10 5 -10 -5 0 -17 5 -25 10 -8 5 -10 10 -5 10 6 0 17 -5
25 -10z m677 4 c-3 -3 -12 -4 -19 -1 -8 3 -5 6 6 6 11 1 17 -2 13 -5z m-270
-10 c-3 -3 -12 -4 -19 -1 -8 3 -5 6 6 6 11 1 17 -2 13 -5z m561 -1 c-15 -2
-42 -2 -60 0 -18 2 -6 4 27 4 33 0 48 -2 33 -4z m-921 -9 c-3 -3 -12 -4 -19
-1 -8 3 -5 6 6 6 11 1 17 -2 13 -5z m320 0 c-3 -3 -12 -4 -19 -1 -8 3 -5 6 6
6 11 1 17 -2 13 -5z m228 -4 c-11 -5 -27 -9 -35 -9 -9 0 -8 4 5 9 11 5 27 9
35 9 9 0 8 -4 -5 -9z m248 3 c-7 -2 -19 -2 -25 0 -7 3 -2 5 12 5 14 0 19 -2
13 -5z m204 1 c-3 -3 -12 -4 -19 -1 -8 3 -5 6 6 6 11 1 17 -2 13 -5z m-929
-11 c-10 -2 -26 -2 -35 0 -10 3 -2 5 17 5 19 0 27 -2 18 -5z m175 0 c-13 -2
-33 -2 -45 0 -13 2 -3 4 22 4 25 0 35 -2 23 -4z m500 0 c-7 -2 -19 -2 -25 0
-7 3 -2 5 12 5 14 0 19 -2 13 -5z m-46 -9 c-3 -3 -12 -4 -19 -1 -8 3 -5 6 6 6
11 1 17 -2 13 -5z m-1794 -21 c-24 -2 -62 -2 -85 0 -24 2 -5 4 42 4 47 0 66
-2 43 -4z m1512 -3 c-11 -5 -27 -9 -35 -9 -9 0 -8 4 5 9 11 5 27 9 35 9 9 0 8
-4 -5 -9z m200 0 c-27 -12 -43 -12 -25 0 8 5 22 9 30 9 10 0 8 -3 -5 -9z
m-1862 -7 c-7 -2 -21 -2 -30 0 -10 3 -4 5 12 5 17 0 24 -2 18 -5z m285 0 c-10
-2 -28 -2 -40 0 -13 2 -5 4 17 4 22 1 32 -1 23 -4z m-371 -9 c-3 -3 -12 -4
-19 -1 -8 3 -5 6 6 6 11 1 17 -2 13 -5z m466 -1 c-7 -2 -19 -2 -25 0 -7 3 -2
5 12 5 14 0 19 -2 13 -5z m757 -8 c19 -7 28 -14 20 -14 -8 0 -28 6 -45 14 -39
17 -21 18 25 0z m467 9 c-3 -3 -12 -4 -19 -1 -8 3 -5 6 6 6 11 1 17 -2 13 -5z
m198 -4 c-27 -12 -43 -12 -25 0 8 5 22 9 30 9 10 0 8 -3 -5 -9z m-1977 -19
c-77 -30 -115 -59 -137 -104 -12 -23 -21 -35 -21 -26 0 35 46 85 109 117 35
17 71 32 80 32 9 -1 -5 -9 -31 -19z m640 12 c-10 -2 -26 -2 -35 0 -10 3 -2 5
17 5 19 0 27 -2 18 -5z m1095 0 c-7 -2 -21 -2 -30 0 -10 3 -4 5 12 5 17 0 24
-2 18 -5z m-1005 -10 c-10 -2 -26 -2 -35 0 -10 3 -2 5 17 5 19 0 27 -2 18 -5z
m-2300 -77 c21 -23 23 -26 6 -16 -24 15 -54 61 -53 82 0 7 5 2 10 -12 6 -14
22 -38 37 -54z m1052 69 c0 -2 -13 -11 -30 -20 -38 -19 -40 -11 -2 9 31 17 32
18 32 11z m1979 -11 c8 -7 -54 -2 -79 6 -17 6 -9 7 25 3 28 -3 52 -7 54 -9z
m850 12 c-2 -2 -38 -6 -79 -8 -42 -3 -64 -2 -50 2 25 8 137 13 129 6z m-706
-13 c-7 -2 -19 -2 -25 0 -7 3 -2 5 12 5 14 0 19 -2 13 -5z m750 0 c-7 -2 -19
-2 -25 0 -7 3 -2 5 12 5 14 0 19 -2 13 -5z m-528 -13 c-11 -5 -27 -9 -35 -9
-9 0 -8 4 5 9 11 5 27 9 35 9 9 0 8 -4 -5 -9z m285 -5 c-46 -18 -64 -17 -25 0
17 8 37 14 45 14 8 0 -1 -7 -20 -14z m290 5 c8 -5 11 -10 5 -10 -5 0 -17 5
-25 10 -8 5 -10 10 -5 10 6 0 17 -5 25 -10z m-2991 -14 c-2 -2 -45 -31 -95
-65 -113 -75 -195 -162 -222 -233 -11 -29 -23 -87 -26 -129 -6 -66 -5 -82 12
-116 32 -61 124 -146 229 -209 31 -19 52 -34 46 -34 -20 0 -163 100 -212 148
-27 26 -59 68 -71 92 -19 38 -21 52 -15 119 4 42 16 99 26 126 34 90 126 184
264 268 52 33 77 45 64 33z m-1085 -94 c17 -19 47 -42 66 -52 19 -11 30 -19
24 -20 -37 -1 -155 117 -154 154 1 6 8 -2 17 -19 8 -16 29 -45 47 -63z m3413
82 c-3 -3 -12 -4 -19 -1 -8 3 -5 6 6 6 11 1 17 -2 13 -5z m303 -4 c-8 -5 -19
-10 -25 -10 -5 0 -3 5 5 10 8 5 20 10 25 10 6 0 3 -5 -5 -10z m-343 -6 c-3 -3
-12 -4 -19 -1 -8 3 -5 6 6 6 11 1 17 -2 13 -5z m-5982 -18 c-17 -12 -17 -16
-5 -46 8 -18 42 -70 75 -116 69 -92 117 -180 210 -385 75 -166 137 -256 214
-312 31 -23 68 -50 81 -60 41 -29 -1 -6 -61 34 -84 57 -144 129 -198 243 -27
56 -78 162 -114 236 -36 74 -80 156 -99 182 -100 142 -116 165 -122 186 -8 24
7 52 27 52 6 0 2 -6 -8 -14z m108 7 c-7 -2 -19 -2 -25 0 -7 3 -2 5 12 5 14 0
19 -2 13 -5z m5834 1 c-3 -3 -12 -4 -19 -1 -8 3 -5 6 6 6 11 1 17 -2 13 -5z
m283 -33 c-36 -22 -81 -53 -100 -70 -31 -26 -34 -32 -23 -50 11 -17 10 -19 -2
-15 -27 11 -16 42 28 77 50 41 138 97 152 97 6 0 -19 -18 -55 -39z m-6073 23
c-3 -3 -12 -4 -19 -1 -8 3 -5 6 6 6 11 1 17 -2 13 -5z m5740 0 c-3 -3 -12 -4
-19 -1 -8 3 -5 6 6 6 11 1 17 -2 13 -5z m-2987 -14 c-8 -5 -19 -10 -25 -10 -5
0 -3 5 5 10 8 5 20 10 25 10 6 0 3 -5 -5 -10z m2933 3 c-7 -2 -21 -2 -30 0
-10 3 -4 5 12 5 17 0 24 -2 18 -5z m-5557 -34 c41 -17 73 -33 71 -35 -3 -3
-147 54 -156 62 -11 10 17 1 85 -27z m3577 24 c-13 -2 -33 -2 -45 0 -13 2 -3
4 22 4 25 0 35 -2 23 -4z m720 0 c-7 -2 -21 -2 -30 0 -10 3 -4 5 12 5 17 0 24
-2 18 -5z m150 0 c-7 -2 -21 -2 -30 0 -10 3 -4 5 12 5 17 0 24 -2 18 -5z
m1030 0 c-7 -2 -19 -2 -25 0 -7 3 -2 5 12 5 14 0 19 -2 13 -5z m-2920 -10
c-13 -2 -35 -2 -50 0 -16 2 -5 4 22 4 28 0 40 -2 28 -4z m934 1 c-3 -3 -12 -4
-19 -1 -8 3 -5 6 6 6 11 1 17 -2 13 -5z m179 -19 c35 -35 73 -122 79 -181 5
-48 5 -47 -9 12 -22 97 -67 169 -116 187 -12 4 -11 6 3 6 10 1 29 -10 43 -24z
m522 6 c-65 -26 -114 -58 -137 -89 -30 -43 -43 -105 -57 -287 l-13 -170 5 145
c7 182 24 272 62 320 29 35 140 100 170 100 10 -1 -4 -9 -30 -19z m309 13 c-3
-3 -12 -4 -19 -1 -8 3 -5 6 6 6 11 1 17 -2 13 -5z m-1057 -14 c-8 -5 -19 -10
-25 -10 -5 0 -3 5 5 10 8 5 20 10 25 10 6 0 3 -5 -5 -10z m1125 0 c25 -11 -1
-11 -35 0 -20 6 -21 8 -5 8 11 0 29 -3 40 -8z m798 3 c-7 -2 -19 -2 -25 0 -7
3 -2 5 12 5 14 0 19 -2 13 -5z m-60 -10 c-7 -2 -19 -2 -25 0 -7 3 -2 5 12 5
14 0 19 -2 13 -5z m-1903 -8 c0 -2 -18 -14 -40 -25 -22 -11 -40 -18 -40 -15 0
2 17 13 38 24 42 23 42 23 42 16z m1813 -30 c-35 -35 -36 -37 -31 -100 7 -79
35 -127 97 -166 24 -16 40 -29 34 -29 -24 0 -98 67 -120 109 -39 75 -29 165
25 209 32 25 29 11 -5 -23z m-1376 -132 c-2 -32 -3 -8 -3 52 0 61 1 87 3 58 2
-29 2 -78 0 -110z m823 142 c14 -8 21 -14 15 -14 -5 0 -21 6 -35 14 -14 8 -20
14 -15 14 6 0 21 -6 35 -14z m-4540 -20 c14 -8 21 -14 15 -14 -5 0 -21 6 -35
14 -14 8 -20 14 -15 14 6 0 21 -6 35 -14z m4695 -87 c23 -26 67 -98 98 -160
72 -143 131 -207 223 -243 31 -12 33 -14 9 -9 -48 9 -124 63 -165 118 -21 28
-59 93 -84 145 -57 116 -91 160 -156 201 -60 39 -66 50 -9 18 23 -13 61 -44
84 -70z m-3427 75 c-21 -2 -57 -2 -80 0 -24 2 -7 4 37 4 44 0 63 -2 43 -4z
m1871 -46 c-105 -100 -134 -208 -85 -312 30 -64 110 -138 189 -176 34 -16 51
-27 37 -23 -88 22 -197 113 -235 197 -50 106 -22 213 80 313 31 30 59 54 63
54 4 0 -18 -24 -49 -53z m-3069 28 c14 -8 21 -14 15 -14 -5 0 -21 6 -35 14
-14 8 -20 14 -15 14 6 0 21 -6 35 -14z m1043 8 c-7 -2 -19 -2 -25 0 -7 3 -2 5
12 5 14 0 19 -2 13 -5z m244 1 c-3 -3 -12 -4 -19 -1 -8 3 -5 6 6 6 11 1 17 -2
13 -5z m-2268 -8 c-2 -2 -22 -6 -44 -9 -28 -5 -34 -4 -20 3 19 8 73 14 64 6z
m124 -3 c-7 -2 -19 -2 -25 0 -7 3 -2 5 12 5 14 0 19 -2 13 -5z m1854 1 c-3 -3
-12 -4 -19 -1 -8 3 -5 6 6 6 11 1 17 -2 13 -5z m343 -4 c18 -12 2 -12 -25 0
-13 6 -15 9 -5 9 8 0 22 -4 30 -9z m-2143 -6 c-3 -3 -12 -4 -19 -1 -8 3 -5 6
6 6 11 1 17 -2 13 -5z m1760 0 c-3 -3 -12 -4 -19 -1 -8 3 -5 6 6 6 11 1 17 -2
13 -5z m1340 0 c-3 -3 -12 -4 -19 -1 -8 3 -5 6 6 6 11 1 17 -2 13 -5z m3923
-4 c-8 -5 -19 -10 -25 -10 -5 0 -3 5 5 10 8 5 20 10 25 10 6 0 3 -5 -5 -10z
m-6160 -10 c8 -5 11 -10 5 -10 -5 0 -17 5 -25 10 -8 5 -10 10 -5 10 6 0 17 -5
25 -10z m840 0 c-34 -11 -60 -11 -35 0 11 5 29 8 40 8 16 0 15 -2 -5 -8z m521
-19 c94 -59 135 -140 143 -279 2 -42 2 -63 0 -47 -19 134 -28 175 -51 218 -27
48 -71 90 -128 120 -16 9 -25 16 -19 17 5 0 30 -13 55 -29z m1914 19 c14 -7 8
-8 -20 -3 -22 3 -42 7 -44 9 -9 8 45 2 64 -6z m-78 -6 c-3 -3 -12 -4 -19 -1
-8 3 -5 6 6 6 11 1 17 -2 13 -5z m-3937 -19 c14 -8 21 -14 15 -14 -5 0 -21 6
-35 14 -14 8 -20 14 -15 14 6 0 21 -6 35 -14z m1505 5 c-11 -5 -29 -8 -40 -8
-16 0 -15 2 5 8 34 11 60 11 35 0z m2600 -48 c31 -47 49 -131 41 -186 -12 -76
-90 -168 -142 -165 -12 0 -7 4 12 10 43 12 100 78 114 131 22 80 -6 188 -63
241 -23 22 -26 27 -9 18 12 -6 33 -29 47 -49z m2712 52 c-3 -3 -12 -4 -19 -1
-8 3 -5 6 6 6 11 1 17 -2 13 -5z m-414 -11 c-7 -2 -19 -2 -25 0 -7 3 -2 5 12
5 14 0 19 -2 13 -5z m355 0 c-10 -2 -26 -2 -35 0 -10 3 -2 5 17 5 19 0 27 -2
18 -5z m-5321 -9 c-3 -3 -12 -4 -19 -1 -8 3 -5 6 6 6 11 1 17 -2 13 -5z m2381
-31 c-45 -46 -58 -79 -58 -144 0 -78 41 -143 115 -182 17 -9 26 -16 20 -17
-16 0 -78 40 -98 63 -69 84 -59 235 20 297 40 31 40 23 1 -17z m2800 30 c-32
-2 -84 -2 -115 0 -32 2 -6 3 57 3 63 0 89 -1 58 -3z m-5723 -13 c13 -5 14 -9
5 -9 -8 0 -24 4 -35 9 -13 5 -14 9 -5 9 8 0 24 -4 35 -9z m492 4 c-3 -3 -12
-4 -19 -1 -8 3 -5 6 6 6 11 1 17 -2 13 -5z m371 -1 c-10 -2 -26 -2 -35 0 -10
3 -2 5 17 5 19 0 27 -2 18 -5z m135 0 c-7 -2 -21 -2 -30 0 -10 3 -4 5 12 5 17
0 24 -2 18 -5z m2990 0 c-7 -2 -21 -2 -30 0 -10 3 -4 5 12 5 17 0 24 -2 18 -5z
m-4711 -86 c76 -64 133 -147 223 -327 105 -210 152 -270 281 -358 11 -7 -1 -2
-25 10 -24 13 -71 53 -106 89 -51 55 -79 99 -159 257 -83 164 -107 202 -167
266 -38 40 -92 88 -119 106 -28 18 -50 34 -50 37 0 9 72 -38 122 -80z m1175
77 c-3 -3 -12 -4 -19 -1 -8 3 -5 6 6 6 11 1 17 -2 13 -5z m336 -1 c-7 -2 -21
-2 -30 0 -10 3 -4 5 12 5 17 0 24 -2 18 -5z m3119 -7 c-51 -18 -100 -72 -118
-130 -8 -28 -22 -120 -30 -205 -11 -112 -23 -179 -45 -247 -17 -52 -34 -114
-38 -137 -6 -30 -9 -34 -10 -15 -1 14 15 77 34 138 25 81 38 145 45 228 18
207 30 259 74 317 25 32 79 65 106 64 8 0 0 -6 -18 -13z m131 7 c-7 -2 -19 -2
-25 0 -7 3 -2 5 12 5 14 0 19 -2 13 -5z m-3970 -10 c-7 -2 -19 -2 -25 0 -7 3
-2 5 12 5 14 0 19 -2 13 -5z m330 0 c-7 -2 -21 -2 -30 0 -10 3 -4 5 12 5 17 0
24 -2 18 -5z m324 1 c-3 -3 -12 -4 -19 -1 -8 3 -5 6 6 6 11 1 17 -2 13 -5z
m385 -23 c79 -50 139 -156 137 -239 -1 -32 -2 -30 -10 18 -17 101 -76 187
-157 230 -20 10 -32 19 -26 20 5 0 31 -13 56 -29z m2978 19 c8 -5 11 -10 5
-10 -5 0 -17 5 -25 10 -8 5 -10 10 -5 10 6 0 17 -5 25 -10z m-3952 -7 c-10 -2
-26 -2 -35 0 -10 3 -2 5 17 5 19 0 27 -2 18 -5z m190 0 c-10 -2 -26 -2 -35 0
-10 3 -2 5 17 5 19 0 27 -2 18 -5z m359 1 c-3 -3 -12 -4 -19 -1 -8 3 -5 6 6 6
11 1 17 -2 13 -5z m-50 -10 c-3 -3 -12 -4 -19 -1 -8 3 -5 6 6 6 11 1 17 -2 13
-5z m-40 -10 c-3 -3 -12 -4 -19 -1 -8 3 -5 6 6 6 11 1 17 -2 13 -5z m3614 -62
c24 -27 66 -91 93 -143 91 -174 158 -251 254 -289 18 -7 31 -15 28 -17 -2 -2
-26 6 -52 19 -66 30 -142 109 -188 193 -91 165 -122 213 -170 259 -28 27 -41
44 -30 38 12 -6 41 -33 65 -60z m-3671 48 c-34 -11 -60 -11 -35 0 11 5 29 8
40 8 16 0 15 -2 -5 -8z m-73 -16 c-3 -3 -12 -4 -19 -1 -8 3 -5 6 6 6 11 1 17
-2 13 -5z m5491 -1 c-16 -2 -40 -2 -55 0 -16 2 -3 4 27 4 30 0 43 -2 28 -4z
m-6181 -9 c-3 -3 -12 -4 -19 -1 -8 3 -5 6 6 6 11 1 17 -2 13 -5z m176 -1 c-7
-2 -21 -2 -30 0 -10 3 -4 5 12 5 17 0 24 -2 18 -5z m460 0 c-7 -2 -19 -2 -25
0 -7 3 -2 5 12 5 14 0 19 -2 13 -5z m522 -2 c11 -5 -16 -6 -60 -4 -104 6 -119
11 -30 12 39 0 79 -4 90 -8z m2423 -169 c-7 -59 -30 -116 -60 -152 -16 -20
-83 -70 -92 -70 -4 0 12 15 36 33 85 65 109 125 110 276 1 88 2 91 8 36 4 -33
3 -88 -2 -123z m82 -66 c-13 -86 -41 -150 -83 -194 -33 -35 -77 -62 -99 -62
-7 0 8 10 32 23 55 27 104 90 126 160 9 29 19 111 22 187 7 130 7 132 10 45 2
-49 -2 -121 -8 -159z m2353 237 c-13 -2 -35 -2 -50 0 -16 2 -5 4 22 4 28 0 40
-2 28 -4z m-6070 -18 c-12 -8 -29 -35 -38 -59 -15 -38 -15 -52 -5 -102 16 -77
72 -190 129 -261 62 -77 153 -144 316 -232 74 -40 135 -75 135 -78 0 -8 -209
106 -284 154 -38 24 -93 67 -122 95 -122 115 -212 316 -185 414 10 38 46 84
65 84 6 0 1 -7 -11 -15z m300 8 c-7 -2 -21 -2 -30 0 -10 3 -4 5 12 5 17 0 24
-2 18 -5z m330 0 c-7 -2 -21 -2 -30 0 -10 3 -4 5 12 5 17 0 24 -2 18 -5z m390
0 c-7 -2 -21 -2 -30 0 -10 3 -4 5 12 5 17 0 24 -2 18 -5z m4940 0 c-7 -2 -21
-2 -30 0 -10 3 -4 5 12 5 17 0 24 -2 18 -5z m-5480 -10 c-18 -2 -48 -2 -65 0
-18 2 -4 4 32 4 36 0 50 -2 33 -4z m460 0 c-7 -2 -19 -2 -25 0 -7 3 -2 5 12 5
14 0 19 -2 13 -5z m4930 0 c-7 -2 -19 -2 -25 0 -7 3 -2 5 12 5 14 0 19 -2 13
-5z m-4980 -10 c-7 -2 -19 -2 -25 0 -7 3 -2 5 12 5 14 0 19 -2 13 -5z m4920 0
c-7 -2 -19 -2 -25 0 -7 3 -2 5 12 5 14 0 19 -2 13 -5z m-4970 -10 c-7 -2 -19
-2 -25 0 -7 3 -2 5 12 5 14 0 19 -2 13 -5z m515 -44 c55 -56 67 -93 68 -209
l2 -105 -7 105 c-8 122 -26 167 -93 225 -24 21 -34 33 -22 27 11 -6 35 -25 52
-43z m4399 45 c-3 -3 -12 -4 -19 -1 -8 3 -5 6 6 6 11 1 17 -2 13 -5z m-4977
-14 c-14 -4 -34 -8 -45 -8 -16 0 -15 2 5 8 14 4 34 8 45 8 16 0 15 -2 -5 -8z
m4917 4 c-3 -3 -12 -4 -19 -1 -8 3 -5 6 6 6 11 1 17 -2 13 -5z m-40 -10 c-3
-3 -12 -4 -19 -1 -8 3 -5 6 6 6 11 1 17 -2 13 -5z m-4960 -10 c-3 -3 -12 -4
-19 -1 -8 3 -5 6 6 6 11 1 17 -2 13 -5z m4906 -1 c-7 -2 -19 -2 -25 0 -7 3 -2
5 12 5 14 0 19 -2 13 -5z m-4950 -10 c-7 -2 -19 -2 -25 0 -7 3 -2 5 12 5 14 0
19 -2 13 -5z m370 0 c-13 -2 -33 -2 -45 0 -13 2 -3 4 22 4 25 0 35 -2 23 -4z
m100 0 c-13 -2 -35 -2 -50 0 -16 2 -5 4 22 4 28 0 40 -2 28 -4z m4430 0 c-7
-2 -19 -2 -25 0 -7 3 -2 5 12 5 14 0 19 -2 13 -5z m-4975 -10 c-10 -2 -26 -2
-35 0 -10 3 -2 5 17 5 19 0 27 -2 18 -5z m345 0 c-7 -2 -19 -2 -25 0 -7 3 -2
5 12 5 14 0 19 -2 13 -5z m1074 -18 c70 -35 134 -94 165 -151 42 -80 51 -141
45 -298 -9 -235 26 -426 110 -596 39 -79 62 -110 138 -186 114 -115 195 -156
500 -255 121 -39 269 -95 330 -124 252 -122 442 -342 531 -615 37 -114 40
-254 7 -315 -47 -87 -123 -127 -258 -133 -151 -7 -521 74 -739 162 -106 42
-184 97 -318 223 -162 151 -237 196 -383 228 -96 22 -223 17 -405 -15 -181
-32 -319 -26 -413 18 -97 44 -181 132 -235 242 -74 150 -142 438 -142 597 0
95 37 136 235 266 198 129 288 205 369 310 76 100 105 164 175 383 33 105 71
204 83 219 53 68 121 81 205 40z m3500 19 c-3 -3 -12 -4 -19 -1 -8 3 -5 6 6 6
11 1 17 -2 13 -5z m-4994 -11 c-7 -2 -21 -2 -30 0 -10 3 -4 5 12 5 17 0 24 -2
18 -5z m370 0 c-7 -2 -19 -2 -25 0 -7 3 -2 5 12 5 14 0 19 -2 13 -5z m4364 1
c-3 -3 -12 -4 -19 -1 -8 3 -5 6 6 6 11 1 17 -2 13 -5z m206 -1 c-7 -2 -19 -2
-25 0 -7 3 -2 5 12 5 14 0 19 -2 13 -5z m-5030 -10 c-7 -2 -19 -2 -25 0 -7 3
-2 5 12 5 14 0 19 -2 13 -5z m404 1 c-3 -3 -12 -4 -19 -1 -8 3 -5 6 6 6 11 1
17 -2 13 -5z m489 -70 c54 -92 53 -217 -4 -338 -35 -75 -77 -124 -141 -165
-70 -45 -74 -38 -5 8 68 46 106 90 140 165 66 144 50 294 -40 373 -39 34 -39
35 -8 17 19 -10 45 -37 58 -60z m2932 56 c-31 -24 -40 -47 -72 -175 -48 -191
-76 -337 -76 -388 0 -68 36 -145 85 -183 69 -53 80 -66 33 -35 -90 60 -128
126 -128 225 0 47 49 285 91 446 19 70 57 130 82 130 5 0 -2 -9 -15 -20z m138
-12 c20 -18 68 -79 106 -136 71 -106 141 -182 191 -208 15 -8 27 -17 27 -20 0
-9 -56 25 -96 60 -23 19 -70 77 -104 128 -89 131 -119 168 -154 189 -17 11
-26 19 -19 19 7 0 29 -14 49 -32z m971 25 c-20 -2 -52 -2 -70 0 -17 2 0 4 38
4 39 0 53 -2 32 -4z m-4994 -10 c-7 -2 -19 -2 -25 0 -7 3 -2 5 12 5 14 0 19
-2 13 -5z m414 1 c-3 -3 -12 -4 -19 -1 -8 3 -5 6 6 6 11 1 17 -2 13 -5z m-50
-10 c-3 -3 -12 -4 -19 -1 -8 3 -5 6 6 6 11 1 17 -2 13 -5z m-452 -14 c-27 -12
-43 -12 -25 0 8 5 22 9 30 9 10 0 8 -3 -5 -9z m392 4 c-3 -3 -12 -4 -19 -1 -8
3 -5 6 6 6 11 1 17 -2 13 -5z m1793 -4 c-8 -5 -19 -10 -25 -10 -5 0 -3 5 5 10
8 5 20 10 25 10 6 0 3 -5 -5 -10z m-1833 -6 c-3 -3 -12 -4 -19 -1 -8 3 -5 6 6
6 11 1 17 -2 13 -5z m1776 -1 c-7 -2 -19 -2 -25 0 -7 3 -2 5 12 5 14 0 19 -2
13 -5z m3725 0 c-16 -2 -40 -2 -55 0 -16 2 -3 4 27 4 30 0 43 -2 28 -4z m155
0 c-13 -2 -35 -2 -50 0 -16 2 -5 4 22 4 28 0 40 -2 28 -4z m-6082 -34 c-27
-26 -31 -38 -31 -82 0 -100 88 -216 238 -313 91 -59 102 -68 47 -38 -115 62
-230 168 -270 247 -35 71 -35 144 1 186 14 17 30 31 36 31 5 0 -4 -14 -21 -31z
m5802 24 c-7 -2 -21 -2 -30 0 -10 3 -4 5 12 5 17 0 24 -2 18 -5z m-60 -10 c-7
-2 -19 -2 -25 0 -7 3 -2 5 12 5 14 0 19 -2 13 -5z m-5015 -10 c-10 -2 -26 -2
-35 0 -10 3 -2 5 17 5 19 0 27 -2 18 -5z m190 -8 c133 -56 159 -208 61 -347
-22 -30 -103 -88 -123 -88 -6 1 3 8 19 17 117 61 181 201 141 306 -21 57 -53
86 -118 108 -29 10 -45 18 -35 19 10 0 34 -7 55 -15z m4775 8 c-7 -2 -19 -2
-25 0 -7 3 -2 5 12 5 14 0 19 -2 13 -5z m-5040 -10 c-7 -2 -21 -2 -30 0 -10 3
-4 5 12 5 17 0 24 -2 18 -5z m4984 1 c-3 -3 -12 -4 -19 -1 -8 3 -5 6 6 6 11 1
17 -2 13 -5z m-5432 -33 c-122 -70 -94 -185 80 -325 75 -61 77 -63 36 -40 -53
30 -160 140 -181 187 -37 80 -23 133 47 177 26 17 52 30 57 30 6 0 -12 -13
-39 -29z m392 23 c-3 -3 -12 -4 -19 -1 -8 3 -5 6 6 6 11 1 17 -2 13 -5z m5000
0 c-3 -3 -12 -4 -19 -1 -8 3 -5 6 6 6 11 1 17 -2 13 -5z m-5062 -14 c-11 -5
-27 -9 -35 -9 -9 0 -8 4 5 9 11 5 27 9 35 9 9 0 8 -4 -5 -9z m5022 4 c-3 -3
-12 -4 -19 -1 -8 3 -5 6 6 6 11 1 17 -2 13 -5z m-5087 -24 c-8 -5 -19 -10 -25
-10 -5 0 -3 5 5 10 8 5 20 10 25 10 6 0 3 -5 -5 -10z m4995 0 c-11 -5 -27 -9
-35 -9 -9 0 -8 4 5 9 11 5 27 9 35 9 9 0 8 -4 -5 -9z m-4118 -37 c-3 -10 -5
-4 -5 12 0 17 2 24 5 18 2 -7 2 -21 0 -30z m4060 21 c-3 -3 -12 -4 -19 -1 -8
3 -5 6 6 6 11 1 17 -2 13 -5z m-5012 -17 c-67 -41 -90 -97 -65 -161 14 -37 81
-98 147 -134 32 -17 53 -32 47 -32 -16 0 -125 68 -156 97 -55 53 -74 135 -42
182 15 21 72 62 84 60 3 0 -4 -6 -15 -12z m1042 -46 c-21 -201 -153 -446 -305
-566 -58 -47 -152 -105 -168 -105 -5 0 16 14 46 32 84 47 165 115 220 182 94
114 182 321 197 457 3 33 8 59 11 59 3 0 2 -26 -1 -59z m3930 53 c-3 -3 -12
-4 -19 -1 -8 3 -5 6 6 6 11 1 17 -2 13 -5z m-40 -10 c-3 -3 -12 -4 -19 -1 -8
3 -5 6 6 6 11 1 17 -2 13 -5z m-2159 -11 c-10 -2 -28 -2 -40 0 -13 2 -5 4 17
4 22 1 32 -1 23 -4z m2119 1 c-3 -3 -12 -4 -19 -1 -8 3 -5 6 6 6 11 1 17 -2
13 -5z m-40 -10 c-3 -3 -12 -4 -19 -1 -8 3 -5 6 6 6 11 1 17 -2 13 -5z m-4504
-11 c-13 -2 -33 -2 -45 0 -13 2 -3 4 22 4 25 0 35 -2 23 -4z m578 -146 c-30
-115 -91 -233 -161 -309 -53 -58 -136 -118 -185 -133 -11 -4 4 7 34 24 171 98
294 294 318 506 6 54 9 62 11 32 2 -21 -6 -75 -17 -120z m3882 146 c-7 -2 -19
-2 -25 0 -7 3 -2 5 12 5 14 0 19 -2 13 -5z m-4536 -9 c-3 -3 -12 -4 -19 -1 -8
3 -5 6 6 6 11 1 17 -2 13 -5z m136 -5 c26 -12 57 -57 57 -84 0 -41 -63 -106
-102 -105 -7 1 1 7 18 14 36 16 74 61 74 88 0 30 -18 57 -53 78 -35 22 -32 26
6 9z m2847 -107 c-26 -82 -60 -141 -106 -187 -35 -35 -102 -75 -126 -75 -7 0
10 11 37 24 95 44 172 159 197 292 9 47 14 60 16 41 2 -15 -6 -58 -18 -95z
m1503 111 c-7 -2 -19 -2 -25 0 -7 3 -2 5 12 5 14 0 19 -2 13 -5z m-4554 -28
c-60 -40 -64 -73 -16 -118 21 -20 25 -26 10 -18 -29 15 -53 50 -53 77 0 22 63
84 85 84 5 0 -7 -11 -26 -25z m4298 19 c-3 -3 -12 -4 -19 -1 -8 3 -5 6 6 6 11
1 17 -2 13 -5z m191 -1 c-10 -2 -28 -2 -40 0 -13 2 -5 4 17 4 22 1 32 -1 23
-4z m785 -10 c-7 -2 -19 -2 -25 0 -7 3 -2 5 12 5 14 0 19 -2 13 -5z m85 0
c-10 -2 -28 -2 -40 0 -13 2 -5 4 17 4 22 1 32 -1 23 -4z m-160 -10 c-10 -2
-26 -2 -35 0 -10 3 -2 5 17 5 19 0 27 -2 18 -5z m225 0 c-7 -2 -19 -2 -25 0
-7 3 -2 5 12 5 14 0 19 -2 13 -5z m-300 -10 c-7 -2 -19 -2 -25 0 -7 3 -2 5 12
5 14 0 19 -2 13 -5z m-46 -9 c-3 -3 -12 -4 -19 -1 -8 3 -5 6 6 6 11 1 17 -2
13 -5z m-50 -10 c-3 -3 -12 -4 -19 -1 -8 3 -5 6 6 6 11 1 17 -2 13 -5z m-40
-10 c-3 -3 -12 -4 -19 -1 -8 3 -5 6 6 6 11 1 17 -2 13 -5z m-3176 -20 c75 -22
330 -155 609 -318 428 -251 451 -276 485 -534 39 -301 104 -412 306 -524 211
-117 258 -147 311 -200 47 -47 61 -70 79 -125 26 -83 36 -245 20 -323 -22
-106 -81 -206 -151 -255 -32 -22 -40 -24 -75 -14 -64 18 -112 78 -184 235
-213 463 -283 570 -430 669 -115 76 -223 118 -529 206 -340 97 -453 150 -557
261 -120 126 -183 278 -192 458 -11 219 55 401 166 460 45 24 72 24 142 4z
m746 10 c-3 -3 -12 -4 -19 -1 -8 3 -5 6 6 6 11 1 17 -2 13 -5z m2390 0 c-3 -3
-12 -4 -19 -1 -8 3 -5 6 6 6 11 1 17 -2 13 -5z m-2289 -11 c-16 -2 -40 -2 -55
0 -16 2 -3 4 27 4 30 0 43 -2 28 -4z m-2051 -101 c-29 -83 -84 -169 -141 -218
-42 -37 -149 -94 -176 -94 -8 0 10 11 41 23 114 47 189 121 248 246 16 35 33
82 37 105 4 22 9 33 11 24 2 -9 -7 -48 -20 -86z m4210 82 c-3 -3 -12 -4 -19
-1 -8 3 -5 6 6 6 11 1 17 -2 13 -5z m-40 -10 c-3 -3 -12 -4 -19 -1 -8 3 -5 6
6 6 11 1 17 -2 13 -5z m-90 -20 c-3 -3 -12 -4 -19 -1 -8 3 -5 6 6 6 11 1 17
-2 13 -5z m-2197 -14 c8 -5 11 -10 5 -10 -5 0 -17 5 -25 10 -8 5 -10 10 -5 10
6 0 17 -5 25 -10z m2153 3 c-7 -2 -21 -2 -30 0 -10 3 -4 5 12 5 17 0 24 -2 18
-5z m-66 -9 c-3 -3 -12 -4 -19 -1 -8 3 -5 6 6 6 11 1 17 -2 13 -5z m-460 -10
c-3 -3 -12 -4 -19 -1 -8 3 -5 6 6 6 11 1 17 -2 13 -5z m396 -1 c-7 -2 -21 -2
-30 0 -10 3 -4 5 12 5 17 0 24 -2 18 -5z m-4458 -13 c13 -6 15 -9 5 -9 -8 0
-22 4 -30 9 -18 12 -2 12 25 0z m2512 4 c-3 -3 -12 -4 -19 -1 -8 3 -5 6 6 6
11 1 17 -2 13 -5z m1590 0 c-3 -3 -12 -4 -19 -1 -8 3 -5 6 6 6 11 1 17 -2 13
-5z m276 -1 c-7 -2 -21 -2 -30 0 -10 3 -4 5 12 5 17 0 24 -2 18 -5z m-1820
-10 c-7 -2 -19 -2 -25 0 -7 3 -2 5 12 5 14 0 19 -2 13 -5z m114 1 c-3 -3 -12
-4 -19 -1 -8 3 -5 6 6 6 11 1 17 -2 13 -5z m1501 -1 c-10 -2 -28 -2 -40 0 -13
2 -5 4 17 4 22 1 32 -1 23 -4z m125 0 c-13 -2 -35 -2 -50 0 -16 2 -5 4 22 4
28 0 40 -2 28 -4z m-393 -19 l25 -15 -25 7 c-14 3 -29 10 -34 15 -16 14 6 10
34 -7z m1093 9 c-23 -2 -64 -2 -90 0 -26 2 -7 3 42 3 50 0 71 -1 48 -3z m-200
-10 c-13 -2 -33 -2 -45 0 -13 2 -3 4 22 4 25 0 35 -2 23 -4z m290 0 c-7 -2
-19 -2 -25 0 -7 3 -2 5 12 5 14 0 19 -2 13 -5z m-420 -10 c-7 -2 -21 -2 -30 0
-10 3 -4 5 12 5 17 0 24 -2 18 -5z m479 -10 c10 -9 18 -23 18 -32 0 -8 -29
-65 -64 -126 -46 -79 -75 -146 -104 -240 -23 -71 -58 -159 -79 -194 -86 -144
-333 -411 -417 -450 -26 -12 -50 -20 -53 -18 -2 3 13 11 35 20 51 21 110 71
216 186 102 110 197 234 231 301 12 25 39 99 60 165 26 84 54 150 95 220 73
124 80 147 49 169 -13 9 -19 16 -15 16 5 0 18 -7 28 -17z m-1185 1 c-3 -3 -12
-4 -19 -1 -8 3 -5 6 6 6 11 1 17 -2 13 -5z m616 -1 c-7 -2 -21 -2 -30 0 -10 3
-4 5 12 5 17 0 24 -2 18 -5z m-2097 -101 c-5 -4 -186 86 -186 93 0 3 43 -16
95 -42 52 -26 93 -49 91 -51z m2027 91 c-7 -2 -21 -2 -30 0 -10 3 -4 5 12 5
17 0 24 -2 18 -5z m-450 -10 c-7 -2 -21 -2 -30 0 -10 3 -4 5 12 5 17 0 24 -2
18 -5z m345 0 c-10 -2 -26 -2 -35 0 -10 3 -2 5 17 5 19 0 27 -2 18 -5z m-850
-12 c-85 -17 -112 -61 -80 -133 22 -49 69 -100 197 -212 50 -43 158 -151 240
-240 156 -169 193 -205 260 -249 22 -15 36 -27 31 -27 -28 0 -146 105 -275
245 -82 89 -192 200 -243 246 -200 181 -252 249 -232 307 12 35 69 72 108 71
30 -1 30 -1 -6 -8z m720 2 c-38 -2 -98 -2 -135 0 -38 2 -7 3 67 3 74 0 105 -1
68 -3z m-618 -23 c8 -5 11 -10 5 -10 -5 0 -17 5 -25 10 -8 5 -10 10 -5 10 6 0
17 -5 25 -10z m-3824 -78 c-5 -4 -126 56 -126 63 0 3 29 -10 65 -27 35 -18 63
-34 61 -36z m3894 48 c8 -5 11 -10 5 -10 -5 0 -17 5 -25 10 -8 5 -10 10 -5 10
6 0 17 -5 25 -10z m-3713 -6 c-3 -3 -12 -4 -19 -1 -8 3 -5 6 6 6 11 1 17 -2
13 -5z m71 -11 c-10 -2 -28 -2 -40 0 -13 2 -5 4 17 4 22 1 32 -1 23 -4z m69 1
c-3 -3 -12 -4 -19 -1 -8 3 -5 6 6 6 11 1 17 -2 13 -5z m3643 -9 c19 -7 28 -14
20 -14 -8 0 -28 6 -45 14 -39 17 -21 18 25 0z m-4334 -53 c-5 -4 -106 46 -106
53 0 3 25 -7 55 -22 30 -15 53 -29 51 -31z m389 -50 c-4 -5 -156 74 -181 94
-11 8 27 -9 83 -38 55 -29 100 -55 98 -56z m2680 98 c13 -6 15 -9 5 -9 -8 0
-22 4 -30 9 -18 12 -2 12 25 0z m1988 3 c-23 -2 -64 -2 -90 0 -26 2 -7 3 42 3
50 0 71 -1 48 -3z m-205 -10 c-16 -2 -40 -2 -55 0 -16 2 -3 4 27 4 30 0 43 -2
28 -4z m295 0 c-7 -2 -19 -2 -25 0 -7 3 -2 5 12 5 14 0 19 -2 13 -5z m-746 -9
c-3 -3 -12 -4 -19 -1 -8 3 -5 6 6 6 11 1 17 -2 13 -5z m296 -1 c-13 -2 -35 -2
-50 0 -16 2 -5 4 22 4 28 0 40 -2 28 -4z m-1536 -9 c-3 -3 -12 -4 -19 -1 -8 3
-5 6 6 6 11 1 17 -2 13 -5z m1366 -1 c-18 -2 -48 -2 -65 0 -18 2 -4 4 32 4 36
0 50 -2 33 -4z m-1275 -10 c-16 -2 -40 -2 -55 0 -16 2 -3 4 27 4 30 0 43 -2
28 -4z m-3408 -28 c25 -13 41 -24 35 -24 -5 0 -30 11 -55 24 -25 13 -40 24
-35 24 6 0 30 -11 55 -24z m5475 -38 c29 -41 30 -45 30 -152 -1 -93 -4 -118
-24 -165 -58 -134 -197 -304 -281 -344 -19 -9 -27 -11 -16 -4 138 93 250 239
296 387 24 77 26 187 4 239 -8 20 -29 52 -47 71 -18 18 -23 28 -12 21 11 -6
34 -30 50 -53z m-5280 35 c-3 -3 -11 0 -18 7 -9 10 -8 11 6 5 10 -3 15 -9 12
-12z m502 2 c-3 -3 -12 -4 -19 -1 -8 3 -5 6 6 6 11 1 17 -2 13 -5z m46 -11
c-7 -2 -19 -2 -25 0 -7 3 -2 5 12 5 14 0 19 -2 13 -5z m3104 -161 c20 -25 65
-56 139 -94 129 -68 132 -77 4 -13 -150 75 -191 125 -189 227 2 53 2 53 9 -15
5 -54 13 -75 37 -105z m-3592 148 c3 -6 -1 -7 -9 -4 -18 7 -21 14 -7 14 6 0
13 -4 16 -10z m598 3 c-13 -2 -33 -2 -45 0 -13 2 -3 4 22 4 25 0 35 -2 23 -4z
m-763 -18 c14 -8 21 -14 15 -14 -5 0 -21 6 -35 14 -14 8 -20 14 -15 14 6 0 21
-6 35 -14z m4998 8 c-16 -2 -40 -2 -55 0 -16 2 -3 4 27 4 30 0 43 -2 28 -4z
m-4583 -66 c6 -6 -12 2 -40 18 -27 15 -54 32 -60 38 -5 6 13 -2 40 -18 28 -15
55 -32 60 -38z m4458 56 c-7 -2 -21 -2 -30 0 -10 3 -4 5 12 5 17 0 24 -2 18
-5z m210 0 c-7 -2 -19 -2 -25 0 -7 3 -2 5 12 5 14 0 19 -2 13 -5z m-4665 -128
c40 -26 72 -49 72 -52 0 -3 -10 1 -22 9 -110 72 -171 109 -215 132 -29 14 -53
29 -53 32 0 9 137 -67 218 -121z m102 115 c8 -5 11 -10 5 -10 -5 0 -17 5 -25
10 -8 5 -10 10 -5 10 6 0 17 -5 25 -10z m4283 3 c-7 -2 -19 -2 -25 0 -7 3 -2
5 12 5 14 0 19 -2 13 -5z m-50 -10 c-7 -2 -19 -2 -25 0 -7 3 -2 5 12 5 14 0
19 -2 13 -5z m-4663 -18 c14 -8 21 -14 15 -14 -5 0 -21 6 -35 14 -14 8 -20 14
-15 14 6 0 21 -6 35 -14z m4605 5 c-11 -5 -27 -9 -35 -9 -9 0 -8 4 5 9 11 5
27 9 35 9 9 0 8 -4 -5 -9z m532 -32 c32 -34 43 -71 43 -144 0 -71 -34 -161
-85 -229 -30 -38 -138 -115 -163 -115 -9 0 7 11 35 25 109 55 194 183 201 307
5 84 -10 130 -56 169 -20 17 -28 27 -17 21 11 -6 30 -21 42 -34z m-4600 16
c-3 -3 -12 -4 -19 -1 -8 3 -5 6 6 6 11 1 17 -2 13 -5z m3981 -14 c-46 -25 -78
-65 -78 -99 0 -39 61 -158 116 -225 27 -33 77 -79 112 -103 35 -24 59 -43 54
-43 -5 0 -33 17 -62 38 -102 70 -215 231 -227 320 -4 28 0 44 18 66 23 29 76
66 94 66 6 -1 -6 -10 -27 -20z m-4425 -16 c234 -118 367 -291 312 -408 -21
-44 -105 -120 -174 -159 -70 -39 -64 -28 10 18 162 100 199 178 138 296 -43
84 -126 156 -270 234 -90 48 -102 62 -16 19z m500 19 c-7 -2 -21 -2 -30 0 -10
3 -4 5 12 5 17 0 24 -2 18 -5z m130 0 c-7 -2 -19 -2 -25 0 -7 3 -2 5 12 5 14
0 19 -2 13 -5z m-257 -71 c-5 -4 -126 56 -126 63 0 3 29 -10 65 -27 35 -18 63
-34 61 -36z m299 -22 c-11 -5 -29 -8 -40 -8 -16 0 -15 2 5 8 34 11 60 11 35 0z
m-198 -6 c-3 -3 -12 -4 -19 -1 -8 3 -5 6 6 6 11 1 17 -2 13 -5z m86 -11 c-13
-2 -33 -2 -45 0 -13 2 -3 4 22 4 25 0 35 -2 23 -4z m-203 -39 c0 -2 -9 0 -20
6 -11 6 -20 13 -20 16 0 2 9 0 20 -6 11 -6 20 -13 20 -16z m3600 -29 c0 -3
-22 6 -50 20 -27 14 -50 28 -50 30 0 3 23 -6 50 -20 28 -14 50 -28 50 -30z
m762 45 c-13 -6 -29 -24 -37 -42 -10 -23 -14 -27 -15 -14 0 24 38 66 59 65 10
0 7 -4 -7 -9z m85 -12 c27 -25 30 -56 7 -84 -15 -18 -15 -18 -5 3 22 45 4 84
-44 96 -19 4 -19 5 -1 6 11 0 30 -9 43 -21z m-4388 -34 c14 -12 -19 -1 -35 12
-18 14 -18 14 6 3 14 -6 27 -13 29 -15z m291 6 c-8 -5 -19 -10 -25 -10 -5 0
-3 5 5 10 8 5 20 10 25 10 6 0 3 -5 -5 -10z m-43 -16 c-3 -3 -12 -4 -19 -1 -8
3 -5 6 6 6 11 1 17 -2 13 -5z m3433 -80 c81 -61 136 -116 239 -236 50 -58 119
-132 154 -164 34 -32 47 -47 30 -35 -18 12 -74 68 -125 124 -164 179 -291 302
-360 347 -38 23 -68 45 -68 47 0 8 72 -38 130 -83z m-3613 70 c-3 -3 -12 -4
-19 -1 -8 3 -5 6 6 6 11 1 17 -2 13 -5z m140 0 c-3 -3 -12 -4 -19 -1 -8 3 -5
6 6 6 11 1 17 -2 13 -5z m-54 -11 c-13 -2 -35 -2 -50 0 -16 2 -5 4 22 4 28 0
40 -2 28 -4z m4128 -20 c13 -16 12 -17 -3 -4 -10 7 -18 15 -18 17 0 8 8 3 21
-13z m-6076 -3 c13 -6 15 -9 5 -9 -8 0 -22 4 -30 9 -18 12 -2 12 25 0z m423 3
c-10 -2 -26 -2 -35 0 -10 3 -2 5 17 5 19 0 27 -2 18 -5z m155 0 c-7 -2 -19 -2
-25 0 -7 3 -2 5 12 5 14 0 19 -2 13 -5z m4710 -29 c147 -74 212 -132 385 -340
111 -135 179 -199 258 -241 32 -18 54 -33 48 -33 -22 0 -136 77 -190 130 -31
30 -93 100 -138 155 -145 180 -214 241 -360 317 -50 26 -88 48 -83 48 4 0 40
-16 80 -36z m-4940 19 c-7 -2 -21 -2 -30 0 -10 3 -4 5 12 5 17 0 24 -2 18 -5z
m-296 -9 c-3 -3 -12 -4 -19 -1 -8 3 -5 6 6 6 11 1 17 -2 13 -5z m226 -1 c-7
-2 -21 -2 -30 0 -10 3 -4 5 12 5 17 0 24 -2 18 -5z m-106 -10 c-20 -2 -52 -2
-70 0 -17 2 0 4 38 4 39 0 53 -2 32 -4z m532 -17 c21 -14 69 -60 107 -102 122
-138 209 -221 260 -247 27 -15 45 -26 41 -27 -34 -2 -139 77 -208 156 -24 28
-68 79 -97 113 -30 34 -77 77 -105 96 -59 40 -57 48 2 11z m4218 -22 c-3 -3
-12 -4 -19 -1 -8 3 -5 6 6 6 11 1 17 -2 13 -5z m140 0 c-3 -3 -12 -4 -19 -1
-8 3 -5 6 6 6 11 1 17 -2 13 -5z m-211 -34 c-19 -17 -38 -44 -41 -61 -4 -17
-9 -28 -11 -26 -18 17 48 117 77 117 5 0 -6 -14 -25 -30z m261 24 c-3 -3 -12
-4 -19 -1 -8 3 -5 6 6 6 11 1 17 -2 13 -5z m53 -14 c18 -12 2 -12 -25 0 -13 6
-15 9 -5 9 8 0 22 -4 30 -9z m1795 0 c-3 -5 -11 -10 -16 -10 -19 0 -144 -86
-202 -140 -32 -29 -100 -101 -149 -159 -132 -154 -208 -230 -250 -252 -59 -30
-57 -22 2 14 31 19 84 67 128 117 221 255 329 355 447 419 45 24 49 25 40 11z
m-6467 -7 c-21 -2 -55 -2 -75 0 -21 2 -4 4 37 4 41 0 58 -2 38 -4z m6619 -35
c41 -44 149 -205 141 -213 -2 -2 -30 39 -63 91 -32 52 -76 110 -97 129 -21 19
-34 35 -30 35 4 0 26 -19 49 -42z m-7147 22 c8 -5 11 -10 5 -10 -5 0 -17 5
-25 10 -8 5 -10 10 -5 10 6 0 17 -5 25 -10z m373 3 c-7 -2 -21 -2 -30 0 -10 3
-4 5 12 5 17 0 24 -2 18 -5z m-60 -10 c-7 -2 -21 -2 -30 0 -10 3 -4 5 12 5 17
0 24 -2 18 -5z m5027 -36 c91 -53 207 -178 270 -290 80 -144 132 -203 215
-249 39 -21 66 -38 61 -38 -4 0 -35 14 -68 32 -76 40 -130 101 -205 230 -99
170 -176 250 -314 329 -30 17 -45 28 -34 24 11 -3 45 -20 75 -38z m-5097 26
c-7 -2 -19 -2 -25 0 -7 3 -2 5 12 5 14 0 19 -2 13 -5z m469 -26 c24 -18 68
-60 98 -93 84 -91 192 -198 220 -217 22 -16 21 -16 -9 0 -18 10 -88 76 -155
147 -66 71 -143 144 -171 162 -27 19 -45 34 -38 34 6 0 31 -15 55 -33z m-574
16 c-16 -2 -40 -2 -55 0 -16 2 -3 4 27 4 30 0 43 -2 28 -4z m269 -49 c-3 -3
-12 -4 -19 -1 -8 3 -5 6 6 6 11 1 17 -2 13 -5z m150 0 c-3 -3 -12 -4 -19 -1
-8 3 -5 6 6 6 11 1 17 -2 13 -5z m-237 -24 c-8 -5 -19 -10 -25 -10 -5 0 -3 5
5 10 8 5 20 10 25 10 6 0 3 -5 -5 -10z m320 -5 c17 -9 30 -18 30 -21 0 -4 -59
23 -69 32 -10 9 13 3 39 -11z m4225 -172 c49 -108 115 -169 268 -249 45 -24
78 -44 74 -44 -29 -1 -199 102 -255 154 -78 72 -133 192 -131 283 2 44 2 43 9
-19 5 -37 20 -93 35 -125z m278 180 c-7 -2 -19 -2 -25 0 -7 3 -2 5 12 5 14 0
19 -2 13 -5z m-85 -19 c-50 -21 -66 -60 -49 -123 22 -83 88 -145 201 -190 30
-12 42 -19 26 -16 -150 31 -286 201 -236 295 12 22 57 49 80 49 8 0 -1 -7 -22
-15z m202 -9 c17 -9 30 -18 30 -21 0 -4 -59 23 -69 32 -10 9 13 3 39 -11z
m-4445 -131 c79 -88 163 -154 250 -195 33 -16 54 -29 47 -29 -19 0 -89 37
-152 81 -30 20 -107 90 -170 155 -63 64 -99 105 -79 91 19 -15 66 -61 104
-103z m5280 116 c13 -6 15 -9 5 -9 -8 0 -22 4 -30 9 -18 12 -2 12 25 0z m-710
-81 c61 -73 74 -144 36 -198 -25 -35 -51 -44 -107 -38 -35 3 -34 4 12 5 41 2
55 7 78 31 55 57 30 142 -68 235 -34 32 -36 35 -9 17 17 -12 43 -35 58 -52z
m778 64 c-7 -2 -21 -2 -30 0 -10 3 -4 5 12 5 17 0 24 -2 18 -5z m64 1 c-3 -3
-12 -4 -19 -1 -8 3 -5 6 6 6 11 1 17 -2 13 -5z m823 -60 c71 -21 123 -55 187
-122 41 -43 53 -63 53 -87 l-1 -30 -21 30 c-12 17 -50 58 -84 92 -106 103
-208 126 -320 73 -65 -31 -203 -170 -240 -240 -36 -71 -40 -154 -8 -197 31
-42 130 -87 312 -143 217 -67 287 -102 339 -172 20 -28 23 -43 23 -126 0 -113
-9 -132 -108 -222 -56 -52 -100 -78 -288 -170 -172 -85 -232 -119 -266 -154
-75 -75 -88 -142 -31 -164 55 -21 92 -24 373 -32 157 -4 293 -11 303 -15 9 -4
17 -13 17 -20 0 -9 -13 -10 -56 -3 -31 5 -180 12 -332 17 -300 9 -335 15 -368
66 -27 41 -5 95 65 166 45 45 82 69 177 114 342 163 406 207 462 315 30 57 33
71 29 119 -12 115 -81 170 -297 237 -293 91 -345 115 -389 180 -58 84 -14 221
113 349 77 78 144 122 215 141 62 17 78 17 141 -2z m-6547 -11 c-7 -2 -19 -2
-25 0 -7 3 -2 5 12 5 14 0 19 -2 13 -5z m70 0 c-7 -2 -19 -2 -25 0 -7 3 -2 5
12 5 14 0 19 -2 13 -5z m66 -29 c20 -15 79 -70 131 -124 53 -54 119 -111 150
-129 30 -17 50 -31 44 -31 -27 0 -136 84 -209 162 -45 47 -100 99 -124 116
-24 18 -40 32 -36 32 4 0 24 -12 44 -26z m816 -34 c-22 -10 -53 -21 -70 -24
-16 -4 -3 4 30 18 71 28 97 32 40 6z m4630 10 c13 -6 15 -9 5 -9 -8 0 -22 4
-30 9 -18 12 -2 12 25 0z m205 0 c-8 -5 -19 -10 -25 -10 -5 0 -3 5 5 10 8 5
20 10 25 10 6 0 3 -5 -5 -10z m-153 -16 c-3 -3 -12 -4 -19 -1 -8 3 -5 6 6 6
11 1 17 -2 13 -5z m110 0 c-3 -3 -12 -4 -19 -1 -8 3 -5 6 6 6 11 1 17 -2 13
-5z m-5060 -20 c-3 -3 -12 -4 -19 -1 -8 3 -5 6 6 6 11 1 17 -2 13 -5z m121
-11 c-21 -2 -55 -2 -75 0 -21 2 -4 4 37 4 41 0 58 -2 38 -4z m415 0 c-13 -2
-33 -2 -45 0 -13 2 -3 4 22 4 25 0 35 -2 23 -4z m-76 -9 c-3 -3 -12 -4 -19 -1
-8 3 -5 6 6 6 11 1 17 -2 13 -5z m185 -41 c47 -50 91 -140 152 -318 20 -58
-29 46 -55 117 -40 109 -76 173 -116 209 -19 16 -30 29 -25 29 4 0 24 -17 44
-37z m5176 20 c-16 -2 -40 -2 -55 0 -16 2 -3 4 27 4 30 0 43 -2 28 -4z m-138
-30 c-103 -68 -145 -165 -105 -242 8 -16 33 -45 57 -65 48 -41 47 -47 -1 -12
-82 61 -102 136 -60 224 20 40 98 111 124 112 5 0 -2 -7 -15 -17z m-5740 -8
c19 -7 28 -14 20 -14 -8 0 -28 6 -45 14 -39 17 -21 18 25 0z m347 9 c-3 -3
-12 -4 -19 -1 -8 3 -5 6 6 6 11 1 17 -2 13 -5z m4559 -32 c-5 -4 -66 26 -66
33 0 3 16 -3 35 -12 19 -9 33 -18 31 -21z m-4599 22 c-3 -3 -12 -4 -19 -1 -8
3 -5 6 6 6 11 1 17 -2 13 -5z m5752 -59 c47 -51 102 -157 100 -195 -1 -19 -3
-16 -10 13 -15 64 -59 138 -114 194 -30 29 -46 49 -36 44 9 -5 36 -30 60 -56z
m-5796 48 c-7 -2 -19 -2 -25 0 -7 3 -2 5 12 5 14 0 19 -2 13 -5z m-90 -10
c-24 -2 -62 -2 -85 0 -24 2 -5 4 42 4 47 0 66 -2 43 -4z m4794 -19 c-3 -3 -12
-4 -19 -1 -8 3 -5 6 6 6 11 1 17 -2 13 -5z m-4439 -11 c-16 -2 -40 -2 -55 0
-16 2 -3 4 27 4 30 0 43 -2 28 -4z m4479 1 c-3 -3 -12 -4 -19 -1 -8 3 -5 6 6
6 11 1 17 -2 13 -5z m126 -1 c-7 -2 -19 -2 -25 0 -7 3 -2 5 12 5 14 0 19 -2
13 -5z m-4720 -10 c-7 -2 -19 -2 -25 0 -7 3 -2 5 12 5 14 0 19 -2 13 -5z m-60
-10 c-7 -2 -19 -2 -25 0 -7 3 -2 5 12 5 14 0 19 -2 13 -5z m310 -45 c31 -32
73 -93 106 -153 122 -227 138 -251 207 -322 53 -54 90 -82 145 -108 41 -20 63
-33 49 -29 -55 14 -141 69 -194 123 -70 71 -85 92 -185 275 -99 181 -112 200
-164 237 -22 16 -35 29 -28 29 7 0 36 -24 64 -52z m-360 35 c-7 -2 -21 -2 -30
0 -10 3 -4 5 12 5 17 0 24 -2 18 -5z m-250 -10 c-7 -2 -19 -2 -25 0 -7 3 -2 5
12 5 14 0 19 -2 13 -5z m170 0 c-7 -2 -21 -2 -30 0 -10 3 -4 5 12 5 17 0 24
-2 18 -5z m-100 -10 c-7 -2 -19 -2 -25 0 -7 3 -2 5 12 5 14 0 19 -2 13 -5z
m-198 -63 c13 -5 14 -9 5 -9 -8 0 -24 4 -35 9 -13 5 -14 9 -5 9 8 0 24 -4 35
-9z m523 3 c-21 -2 -57 -2 -80 0 -24 2 -7 4 37 4 44 0 63 -2 43 -4z m4529 1
c-3 -3 -12 -4 -19 -1 -8 3 -5 6 6 6 11 1 17 -2 13 -5z m-4684 -11 c-7 -2 -21
-2 -30 0 -10 3 -4 5 12 5 17 0 24 -2 18 -5z m234 1 c-3 -3 -12 -4 -19 -1 -8 3
-5 6 6 6 11 1 17 -2 13 -5z m4496 -1 c-7 -2 -19 -2 -25 0 -7 3 -2 5 12 5 14 0
19 -2 13 -5z m164 1 c-3 -3 -12 -4 -19 -1 -8 3 -5 6 6 6 11 1 17 -2 13 -5z
m-5174 -11 c-7 -2 -21 -2 -30 0 -10 3 -4 5 12 5 17 0 24 -2 18 -5z m205 0
c-10 -2 -28 -2 -40 0 -13 2 -5 4 17 4 22 1 32 -1 23 -4z m373 -18 c47 -31 119
-123 204 -259 113 -180 212 -271 348 -322 34 -13 55 -23 47 -23 -28 -1 -127
46 -188 88 -83 58 -127 113 -256 314 -61 96 -134 179 -181 208 -16 11 -25 19
-20 19 6 0 27 -11 46 -25z m3524 7 c-3 -3 -11 0 -18 7 -9 10 -8 11 6 5 10 -3
15 -9 12 -12z m1008 11 c-13 -2 -35 -2 -50 0 -16 2 -5 4 22 4 28 0 40 -2 28
-4z m-957 -29 c18 -14 18 -14 -6 -3 -31 14 -36 19 -24 19 6 0 19 -7 30 -16z
m58 -29 c11 -8 16 -15 10 -15 -5 0 -18 7 -28 15 -11 8 -16 15 -10 15 5 0 18
-7 28 -15z m586 0 c14 -8 21 -14 15 -14 -5 0 -21 6 -35 14 -14 8 -20 14 -15
14 6 0 21 -6 35 -14z m-481 -81 c46 -52 81 -136 87 -209 3 -46 3 -45 -10 17
-21 99 -51 157 -109 212 -29 27 -42 44 -31 38 12 -7 40 -32 63 -58z m541 56
c8 -5 11 -10 5 -10 -5 0 -17 5 -25 10 -8 5 -10 10 -5 10 6 0 17 -5 25 -10z
m80 -30 c8 -5 11 -10 5 -10 -5 0 -17 5 -25 10 -8 5 -10 10 -5 10 6 0 17 -5 25
-10z m1210 -31 c0 -25 -52 -79 -77 -79 -11 0 -5 7 17 18 24 11 38 27 45 50 11
37 15 40 15 11z m-1100 -21 c36 -22 63 -48 81 -79 26 -44 27 -51 19 -120 -9
-80 -30 -173 -37 -165 -2 2 1 23 7 46 6 23 15 75 20 117 8 71 7 78 -19 121
-19 33 -42 54 -86 78 -33 19 -55 34 -50 34 6 0 35 -15 65 -32z m-4159 -43 c67
-125 130 -196 219 -244 30 -17 51 -31 45 -31 -23 0 -113 61 -157 107 -44 45
-148 204 -148 226 0 15 5 8 41 -58z m4879 40 c14 -8 21 -14 15 -14 -5 0 -21 6
-35 14 -14 8 -20 14 -15 14 6 0 21 -6 35 -14z m-1027 -32 c-18 -2 -48 -2 -65
0 -18 2 -4 4 32 4 36 0 50 -2 33 -4z m-127 -24 c-40 -31 -58 -75 -66 -159 -7
-71 -7 -72 -9 -20 0 30 4 72 10 93 10 38 63 107 81 107 6 0 -1 -9 -16 -21z
m201 15 c-3 -3 -12 -4 -19 -1 -8 3 -5 6 6 6 11 1 17 -2 13 -5z m1080 0 c-3 -3
-12 -4 -19 -1 -8 3 -5 6 6 6 11 1 17 -2 13 -5z m-1028 -19 c69 -35 121 -127
121 -212 0 -96 -66 -216 -141 -256 -32 -17 -32 -17 -9 0 43 30 89 85 113 133
17 35 22 62 22 120 -1 105 -37 169 -120 213 -16 9 -26 16 -22 17 4 0 21 -7 36
-15z m1104 8 c-7 -2 -21 -2 -30 0 -10 3 -4 5 12 5 17 0 24 -2 18 -5z m-490
-120 c-7 -2 -21 -2 -30 0 -10 3 -4 5 12 5 17 0 24 -2 18 -5z m110 0 c-7 -2
-21 -2 -30 0 -10 3 -4 5 12 5 17 0 24 -2 18 -5z m-198 -21 c-94 -58 -175 -225
-175 -362 0 -76 28 -133 77 -159 21 -11 34 -20 28 -21 -5 0 -25 9 -43 20 -65
40 -89 150 -58 267 17 63 58 155 86 191 25 31 89 82 104 82 6 0 -3 -8 -19 -18z
m252 12 c-3 -3 -12 -4 -19 -1 -8 3 -5 6 6 6 11 1 17 -2 13 -5z m108 -29 c39
-17 21 -18 -25 0 -19 7 -28 14 -20 14 8 0 29 -6 45 -14z m96 -43 c54 -35 119
-106 119 -130 -1 -11 -6 -7 -17 13 -24 46 -63 84 -118 116 -27 16 -45 29 -39
29 5 0 30 -13 55 -28z m-1417 -217 c4 -47 3 -52 -4 -25 -5 19 -11 87 -14 150
-5 112 -5 113 4 25 5 -49 11 -117 14 -150z m-2581 178 c-24 -2 -62 -2 -85 0
-24 2 -5 4 42 4 47 0 66 -2 43 -4z m3710 0 c-7 -2 -19 -2 -25 0 -7 3 -2 5 12
5 14 0 19 -2 13 -5z m75 0 c-10 -2 -26 -2 -35 0 -10 3 -2 5 17 5 19 0 27 -2
18 -5z m-3955 -10 c-7 -2 -21 -2 -30 0 -10 3 -4 5 12 5 17 0 24 -2 18 -5z
m292 -3 c13 -5 14 -9 5 -9 -8 0 -24 4 -35 9 -13 5 -14 9 -5 9 8 0 24 -4 35 -9z
m2623 -146 c20 -40 51 -73 87 -92 11 -6 15 -12 9 -12 -13 0 -62 37 -86 65 -21
26 -58 137 -57 173 0 15 6 0 14 -34 7 -34 22 -79 33 -100z m880 136 c-101 -54
-125 -179 -47 -245 17 -14 26 -25 21 -25 -19 0 -71 70 -77 103 -7 36 13 97 43
131 20 22 73 56 87 56 6 -1 -6 -10 -27 -20z m222 10 c8 -5 11 -10 5 -10 -5 0
-17 5 -25 10 -8 5 -10 10 -5 10 6 0 17 -5 25 -10z m-4077 -7 c-7 -2 -21 -2
-30 0 -10 3 -4 5 12 5 17 0 24 -2 18 -5z m-374 -19 c9 -8 -45 -2 -64 6 -14 7
-8 8 20 3 22 -3 42 -7 44 -9z m294 9 c-7 -2 -19 -2 -25 0 -7 3 -2 5 12 5 14 0
19 -2 13 -5z m487 -3 c8 -5 11 -10 5 -10 -5 0 -17 5 -25 10 -8 5 -10 10 -5 10
6 0 17 -5 25 -10z m3744 -24 c66 -62 43 -143 -58 -200 -22 -13 -52 -27 -66
-30 -14 -4 3 7 37 24 78 39 113 79 113 130 0 38 -13 57 -65 95 -11 8 -15 15
-8 15 6 0 28 -15 47 -34z m-4301 17 c-7 -2 -21 -2 -30 0 -10 3 -4 5 12 5 17 0
24 -2 18 -5z m-106 -10 c-20 -2 -52 -2 -70 0 -17 2 0 4 38 4 39 0 53 -2 32 -4z
m450 0 c-20 -2 -52 -2 -70 0 -17 2 0 4 38 4 39 0 53 -2 32 -4z m321 -40 c31
-21 111 -90 177 -153 141 -137 176 -165 275 -220 41 -23 66 -39 55 -35 -70 22
-179 100 -294 210 -138 132 -193 178 -261 219 -25 16 -37 25 -27 22 10 -3 44
-23 75 -43z m-455 30 c-7 -2 -19 -2 -25 0 -7 3 -2 5 12 5 14 0 19 -2 13 -5z
m234 1 c-3 -3 -12 -4 -19 -1 -8 3 -5 6 6 6 11 1 17 -2 13 -5z m-294 -11 c-7
-2 -19 -2 -25 0 -7 3 -2 5 12 5 14 0 19 -2 13 -5z m334 1 c-3 -3 -12 -4 -19
-1 -8 3 -5 6 6 6 11 1 17 -2 13 -5z m-384 -11 c-7 -2 -19 -2 -25 0 -7 3 -2 5
12 5 14 0 19 -2 13 -5z m-46 -9 c-3 -3 -12 -4 -19 -1 -8 3 -5 6 6 6 11 1 17
-2 13 -5z m547 -26 c42 -23 90 -63 156 -132 234 -244 274 -281 345 -319 39
-20 66 -36 60 -37 -17 0 -123 63 -176 105 -27 22 -97 94 -154 160 -109 125
-165 175 -257 225 -72 40 -51 38 26 -2z m2997 -89 c-44 -108 -108 -214 -163
-266 -35 -34 -145 -103 -162 -103 -6 0 16 15 49 33 120 65 219 200 286 390 13
37 25 63 27 58 2 -6 -15 -56 -37 -112z m-3844 105 c-3 -3 -12 -4 -19 -1 -8 3
-5 6 6 6 11 1 17 -2 13 -5z m236 -1 c-7 -2 -19 -2 -25 0 -7 3 -2 5 12 5 14 0
19 -2 13 -5z m-90 -10 c-23 -2 -64 -2 -90 0 -26 2 -7 3 42 3 50 0 71 -1 48 -3z
m355 -10 c-10 -2 -26 -2 -35 0 -10 3 -2 5 17 5 19 0 27 -2 18 -5z m135 0 c-7
-2 -21 -2 -30 0 -10 3 -4 5 12 5 17 0 24 -2 18 -5z m-210 -10 c-7 -2 -21 -2
-30 0 -10 3 -4 5 12 5 17 0 24 -2 18 -5z m254 1 c-3 -3 -12 -4 -19 -1 -8 3 -5
6 6 6 11 1 17 -2 13 -5z m-310 -10 c-3 -3 -12 -4 -19 -1 -8 3 -5 6 6 6 11 1
17 -2 13 -5z m373 -9 c33 -19 21 -19 -21 0 -19 8 -27 14 -19 14 8 0 26 -6 40
-14z m-433 -1 c-3 -3 -12 -4 -19 -1 -8 3 -5 6 6 6 11 1 17 -2 13 -5z m-44 -11
c-7 -2 -19 -2 -25 0 -7 3 -2 5 12 5 14 0 19 -2 13 -5z m4471 -27 c-10 -40 -90
-117 -162 -155 -35 -18 -65 -31 -67 -29 -2 2 25 18 60 37 75 39 139 99 157
147 14 39 22 39 12 0z m-4706 17 c-10 -2 -26 -2 -35 0 -10 3 -2 5 17 5 19 0
27 -2 18 -5z m170 0 c-10 -2 -28 -2 -40 0 -13 2 -5 4 17 4 22 1 32 -1 23 -4z
m625 -22 c62 -42 132 -122 227 -255 99 -139 153 -190 254 -242 41 -21 73 -40
71 -42 -2 -2 -36 13 -76 34 -98 52 -169 120 -269 260 -106 149 -131 178 -204
231 -65 48 -68 59 -3 14z m2464 -262 c33 -61 71 -97 119 -114 22 -8 31 -14 21
-15 -46 -1 -118 63 -156 138 -22 43 -61 167 -60 191 0 9 11 -22 25 -69 14 -46
37 -106 51 -131z m261 184 c-10 -2 -28 -2 -40 0 -13 2 -5 4 17 4 22 1 32 -1
23 -4z m839 -29 c-3 -3 -12 -4 -19 -1 -8 3 -5 6 6 6 11 1 17 -2 13 -5z m93
-84 c-8 -5 -19 -10 -25 -10 -5 0 -3 5 5 10 8 5 20 10 25 10 6 0 3 -5 -5 -10z
m424 -21 c-10 -11 -28 -25 -39 -31 -11 -5 -4 4 15 21 41 36 51 40 24 10z
m-467 5 c-3 -3 -12 -4 -19 -1 -8 3 -5 6 6 6 11 1 17 -2 13 -5z m-70 -20 c-3
-3 -12 -4 -19 -1 -8 3 -5 6 6 6 11 1 17 -2 13 -5z m-50 -10 c-3 -3 -12 -4 -19
-1 -8 3 -5 6 6 6 11 1 17 -2 13 -5z m-50 -10 c-3 -3 -12 -4 -19 -1 -8 3 -5 6
6 6 11 1 17 -2 13 -5z m-79 -11 c-10 -2 -28 -2 -40 0 -13 2 -5 4 17 4 22 1 32
-1 23 -4z m652 2 c0 -2 -30 -21 -67 -41 -199 -109 -242 -171 -155 -218 15 -9
22 -15 17 -16 -16 0 -54 29 -65 50 -14 26 8 68 52 102 27 20 206 127 216 128
1 0 2 -2 2 -5z m-3350 -75 c8 -5 11 -10 5 -10 -5 0 -17 5 -25 10 -8 5 -10 10
-5 10 6 0 17 -5 25 -10z m185 -60 c13 -5 14 -9 5 -9 -8 0 -24 4 -35 9 -13 5
-14 9 -5 9 8 0 24 -4 35 -9z m122 -36 c-3 -3 -12 -4 -19 -1 -8 3 -5 6 6 6 11
1 17 -2 13 -5z m98 -24 c13 -5 14 -9 5 -9 -8 0 -24 4 -35 9 -13 5 -14 9 -5 9
8 0 24 -4 35 -9z m-280 -20 c13 -5 14 -9 5 -9 -8 0 -24 4 -35 9 -13 5 -14 9
-5 9 8 0 24 -4 35 -9z m350 0 c13 -5 14 -9 5 -9 -8 0 -24 4 -35 9 -13 5 -14 9
-5 9 8 0 24 -4 35 -9z m-298 -16 c-3 -3 -12 -4 -19 -1 -8 3 -5 6 6 6 11 1 17
-2 13 -5z m88 -24 c13 -5 14 -9 5 -9 -8 0 -24 4 -35 9 -13 5 -14 9 -5 9 8 0
24 -4 35 -9z m338 3 c-7 -2 -19 -2 -25 0 -7 3 -2 5 12 5 14 0 19 -2 13 -5z
m44 -9 c-3 -3 -12 -4 -19 -1 -8 3 -5 6 6 6 11 1 17 -2 13 -5z m46 -11 c-7 -2
-19 -2 -25 0 -7 3 -2 5 12 5 14 0 19 -2 13 -5z m505 0 c-21 -2 -55 -2 -75 0
-21 2 -4 4 37 4 41 0 58 -2 38 -4z m-425 -10 c-7 -2 -21 -2 -30 0 -10 3 -4 5
12 5 17 0 24 -2 18 -5z m280 0 c-7 -2 -21 -2 -30 0 -10 3 -4 5 12 5 17 0 24
-2 18 -5z m2134 1 c-3 -3 -12 -4 -19 -1 -8 3 -5 6 6 6 11 1 17 -2 13 -5z
m-3257 -14 c8 -5 11 -10 5 -10 -5 0 -17 5 -25 10 -8 5 -10 10 -5 10 6 0 17 -5
25 -10z m953 3 c-13 -2 -35 -2 -50 0 -16 2 -5 4 22 4 28 0 40 -2 28 -4z m100
0 c-7 -2 -21 -2 -30 0 -10 3 -4 5 12 5 17 0 24 -2 18 -5z m2244 1 c-3 -3 -12
-4 -19 -1 -8 3 -5 6 6 6 11 1 17 -2 13 -5z m86 -11 c-7 -2 -21 -2 -30 0 -10 3
-4 5 12 5 17 0 24 -2 18 -5z m-2828 -29 c24 -11 25 -13 5 -8 -14 4 -38 13 -55
20 -24 11 -25 13 -5 8 14 -4 39 -13 55 -20z m2913 19 c-10 -2 -26 -2 -35 0
-10 3 -2 5 17 5 19 0 27 -2 18 -5z m-3358 -23 c8 -5 11 -10 5 -10 -5 0 -17 5
-25 10 -8 5 -10 10 -5 10 6 0 17 -5 25 -10z m60 -20 c18 -12 2 -12 -25 0 -13
6 -15 9 -5 9 8 0 22 -4 30 -9z m450 0 c8 -5 11 -10 5 -10 -5 0 -17 5 -25 10
-8 5 -10 10 -5 10 6 0 17 -5 25 -10z m-400 -20 c8 -5 11 -10 5 -10 -5 0 -17 5
-25 10 -8 5 -10 10 -5 10 6 0 17 -5 25 -10z m450 0 c8 -5 11 -10 5 -10 -5 0
-17 5 -25 10 -8 5 -10 10 -5 10 6 0 17 -5 25 -10z m60 -25 c14 -8 21 -14 15
-14 -5 0 -21 6 -35 14 -14 8 -20 14 -15 14 6 0 21 -6 35 -14z m-414 -21 c18
-14 18 -14 -6 -3 -31 14 -36 19 -24 19 6 0 19 -7 30 -16z m494 -14 c19 -11 31
-19 25 -19 -5 0 -26 8 -45 19 -19 11 -30 19 -25 19 6 0 26 -8 45 -19z"/>
<path d="M2892 2994 c-32 -22 -55 -72 -103 -229 -85 -279 -123 -348 -269 -496
-81 -81 -140 -128 -252 -202 -238 -157 -262 -183 -259 -290 2 -95 26 -237 63
-367 78 -278 205 -425 399 -460 72 -13 140 -8 309 22 149 27 338 29 429 4 130
-35 225 -98 403 -262 59 -54 132 -114 163 -133 112 -68 335 -138 594 -186 277
-52 405 -24 462 100 69 149 -49 478 -245 683 -139 146 -262 212 -599 323 -146
48 -277 99 -337 129 -189 97 -310 245 -383 465 -40 120 -49 190 -56 435 -6
220 -9 250 -28 291 -60 131 -217 225 -291 173z m39 -372 c-13 -9 -62 -68 -109
-132 -115 -155 -229 -266 -402 -390 -230 -166 -297 -246 -320 -386 -9 -55 -8
-89 6 -234 3 -30 3 -52 0 -49 -4 3 -11 55 -16 115 -22 252 31 348 297 539 222
159 292 227 430 416 64 86 115 140 132 138 3 0 -5 -8 -18 -17z m88 -8 c20 -25
64 -134 161 -399 67 -180 146 -333 225 -432 65 -84 128 -135 229 -189 33 -19
57 -34 52 -34 -4 0 -39 16 -77 36 -181 96 -315 284 -438 619 -99 269 -146 380
-168 403 -12 12 -18 22 -13 22 5 0 18 -12 29 -26z m-96 -351 c-13 -2 -35 -2
-50 0 -16 2 -5 4 22 4 28 0 40 -2 28 -4z m-86 -9 c-3 -3 -12 -4 -19 -1 -8 3
-5 6 6 6 11 1 17 -2 13 -5z m-57 -19 c-14 -8 -29 -14 -35 -14 -5 0 1 6 15 14
14 8 30 14 35 14 6 0 -1 -6 -15 -14z m368 -182 c37 -56 96 -147 132 -203 76
-118 184 -233 269 -285 68 -42 83 -58 22 -24 -127 71 -213 167 -369 412 -59
92 -134 198 -166 235 l-60 67 53 -50 c29 -27 82 -96 119 -152z m-418 163 c0
-2 -37 -28 -82 -57 -247 -160 -367 -269 -426 -388 -35 -70 -37 -82 -43 -200
l-7 -126 2 125 c1 118 3 129 32 190 62 130 150 215 386 372 130 87 138 92 138
84z m93 -83 c-7 -2 -19 -2 -25 0 -7 3 -2 5 12 5 14 0 19 -2 13 -5z m80 0 c-7
-2 -19 -2 -25 0 -7 3 -2 5 12 5 14 0 19 -2 13 -5z m-133 -13 c-8 -5 -22 -9
-30 -9 -10 0 -8 3 5 9 27 12 43 12 25 0z m241 -34 c54 -41 91 -86 199 -241
173 -250 275 -346 433 -406 31 -12 56 -24 53 -26 -10 -11 -157 62 -218 108
-83 62 -151 139 -258 294 -125 180 -170 234 -225 271 -27 19 -45 34 -39 34 6
0 31 -15 55 -34z m-321 4 c-8 -5 -19 -10 -25 -10 -5 0 -3 5 5 10 8 5 20 10 25
10 6 0 3 -5 -5 -10z m-41 -14 c-2 -2 -15 -9 -29 -15 -24 -11 -24 -11 -6 3 16
13 49 24 35 12z m-94 -52 c-26 -20 -55 -36 -55 -30 0 5 63 46 70 46 3 -1 -4
-8 -15 -16z m288 -1 c-7 -2 -19 -2 -25 0 -7 3 -2 5 12 5 14 0 19 -2 13 -5z
m-86 -9 c-3 -3 -12 -4 -19 -1 -8 3 -5 6 6 6 11 1 17 -2 13 -5z m163 -4 c18
-12 2 -12 -25 0 -13 6 -15 9 -5 9 8 0 22 -4 30 -9z m-215 -10 c-27 -12 -43
-12 -25 0 8 5 22 9 30 9 10 0 8 -3 -5 -9z m-291 -84 c-88 -81 -133 -152 -159
-251 -50 -194 36 -437 183 -514 20 -11 32 -20 26 -21 -20 0 -102 58 -127 91
-64 86 -107 213 -107 321 0 163 73 299 230 427 53 43 31 18 -46 -53z m245 70
c-10 -9 -89 -46 -89 -41 0 6 72 44 84 45 5 0 7 -2 5 -4z m364 -36 c61 -54 119
-129 277 -355 142 -204 181 -250 249 -296 25 -16 40 -29 34 -29 -16 0 -84 53
-129 101 -23 24 -91 117 -153 206 -148 215 -243 336 -288 369 -54 40 -59 44
-46 44 5 0 31 -18 56 -40z m-493 -38 c-19 -15 -52 -42 -73 -61 -179 -161 -187
-453 -17 -609 22 -20 22 -22 4 -13 -57 28 -119 141 -133 244 -17 125 19 250
100 341 42 48 134 126 147 126 4 0 -9 -13 -28 -28z m223 1 c-7 -2 -19 -2 -25
0 -7 3 -2 5 12 5 14 0 19 -2 13 -5z m152 -8 c39 -17 21 -18 -25 0 -19 7 -28
14 -20 14 8 0 29 -6 45 -14z m-198 -1 c-3 -3 -12 -4 -19 -1 -8 3 -5 6 6 6 11
1 17 -2 13 -5z m-47 -14 c-8 -5 -19 -10 -25 -10 -5 0 -3 5 5 10 8 5 20 10 25
10 6 0 3 -5 -5 -10z m397 -87 c61 -62 123 -163 164 -265 37 -95 38 -136 2
-170 -30 -27 -92 -62 -99 -55 -2 2 14 12 35 22 64 28 85 57 79 107 -14 121
-125 306 -244 407 -25 21 -30 28 -14 20 14 -7 48 -36 77 -66z m-482 45 c-57
-42 -118 -111 -144 -167 -22 -48 -26 -69 -26 -151 0 -73 4 -103 18 -128 27
-50 83 -108 117 -122 17 -7 29 -15 26 -17 -8 -8 -60 24 -95 59 -19 18 -45 57
-59 87 -48 104 -17 267 69 366 32 37 105 95 118 95 3 0 -7 -10 -24 -22z m140
-28 c-27 -12 -43 -12 -25 0 8 5 22 9 30 9 10 0 8 -3 -5 -9z m155 0 c18 -12 2
-12 -25 0 -13 6 -15 9 -5 9 8 0 22 -4 30 -9z m-201 -14 c-2 -2 -15 -9 -29 -15
-24 -11 -24 -11 -6 3 16 13 49 24 35 12z m270 -20 c77 -49 154 -158 166 -236
5 -34 5 -34 -8 5 -33 98 -86 170 -161 221 -58 39 -56 47 3 10z m-371 -53 c-26
-27 -56 -68 -67 -93 -11 -25 -21 -38 -21 -30 0 26 58 117 92 144 49 39 48 32
-4 -21z m185 -40 c-7 -2 -19 -2 -25 0 -7 3 -2 5 12 5 14 0 19 -2 13 -5z m-74
-27 c-83 -57 -83 -186 0 -231 14 -8 21 -14 14 -15 -25 0 -73 53 -84 92 -9 33
-7 49 6 84 15 40 66 94 90 94 5 0 -6 -11 -26 -24z m234 -29 c46 -60 44 -141
-5 -183 l-22 -19 22 29 c46 60 32 150 -32 202 -19 16 -23 21 -9 15 12 -6 33
-26 46 -44z m-408 -204 c9 -15 29 -41 44 -58 l26 -30 -34 30 c-47 42 -71 98
-69 165 l1 55 7 -67 c3 -36 15 -79 25 -95z m1225 117 c8 -5 11 -10 5 -10 -5 0
-17 5 -25 10 -8 5 -10 10 -5 10 6 0 17 -5 25 -10z m85 -30 c13 -6 15 -9 5 -9
-8 0 -22 4 -30 9 -18 12 -2 12 25 0z m-134 -25 c19 -8 27 -14 19 -14 -14 0
-72 28 -59 29 4 0 22 -7 40 -15z m-572 -27 c-5 -17 -21 -45 -36 -61 -29 -30
-81 -62 -89 -54 -3 2 9 10 26 17 36 15 90 74 90 99 0 15 8 31 16 31 1 0 -1
-14 -7 -32z m801 22 c18 -12 2 -12 -25 0 -13 6 -15 9 -5 9 8 0 22 -4 30 -9z
m65 -20 c13 -6 15 -9 5 -9 -8 0 -22 4 -30 9 -18 12 -2 12 25 0z m-120 -30 c13
-5 14 -9 5 -9 -8 0 -24 4 -35 9 -13 5 -14 9 -5 9 8 0 24 -4 35 -9z m-1620
-158 c34 -73 78 -127 139 -168 28 -19 47 -34 43 -34 -16 0 -94 59 -125 95 -53
59 -113 195 -111 250 0 11 7 -5 15 -35 8 -30 26 -79 39 -108z m1875 142 c23
-9 39 -18 37 -20 -2 -3 -24 4 -48 15 -54 24 -45 27 11 5z m-1265 -4 c-11 -5
-33 -8 -50 -8 -29 1 -29 1 5 8 49 10 69 10 45 0z m-656 -207 c31 -58 90 -123
151 -166 l25 -17 -30 14 c-45 21 -129 115 -163 182 -31 61 -62 156 -61 183 0
9 10 -18 22 -59 13 -41 38 -103 56 -137z m554 200 c-7 -2 -19 -2 -25 0 -7 3
-2 5 12 5 14 0 19 -2 13 -5z m1007 -13 c18 -12 2 -12 -25 0 -13 6 -15 9 -5 9
8 0 22 -4 30 -9z m220 0 c8 -5 11 -10 5 -10 -5 0 -17 5 -25 10 -8 5 -10 10 -5
10 6 0 17 -5 25 -10z m-155 -20 c13 -5 14 -9 5 -9 -8 0 -24 4 -35 9 -13 5 -14
9 -5 9 8 0 24 -4 35 -9z m405 -5 c17 -9 30 -18 30 -21 0 -4 -59 23 -69 32 -10
9 13 3 39 -11z m-170 -5 c8 -5 11 -10 5 -10 -5 0 -17 5 -25 10 -8 5 -10 10 -5
10 6 0 17 -5 25 -10z m-165 -10 c13 -5 14 -9 5 -9 -8 0 -24 4 -35 9 -13 5 -14
9 -5 9 8 0 24 -4 35 -9z m215 -10 c8 -5 11 -10 5 -10 -5 0 -17 5 -25 10 -8 5
-10 10 -5 10 6 0 17 -5 25 -10z m-1170 -20 c-8 -5 -22 -9 -30 -9 -10 0 -8 3 5
9 27 12 43 12 25 0z m1465 -65 c77 -55 172 -154 224 -234 41 -64 101 -206 101
-238 0 -10 -12 15 -26 55 -33 98 -57 144 -116 224 -59 80 -139 155 -230 216
-38 25 -68 47 -68 50 0 5 37 -18 115 -73z m-1718 49 c-3 -3 -12 -4 -19 -1 -8
3 -5 6 6 6 11 1 17 -2 13 -5z m190 0 c-3 -3 -12 -4 -19 -1 -8 3 -5 6 6 6 11 1
17 -2 13 -5z m1183 -10 c23 -9 39 -18 37 -20 -2 -3 -24 4 -48 15 -54 24 -45
27 11 5z m-1263 -1 c-20 -2 -52 -2 -70 0 -17 2 0 4 38 4 39 0 53 -2 32 -4z
m1504 -60 c6 -7 -14 3 -46 22 -75 45 -84 56 -17 20 29 -16 57 -34 63 -42z
m-1256 37 c-11 -5 -27 -9 -35 -9 -9 0 -8 4 5 9 11 5 27 9 35 9 9 0 8 -4 -5 -9z
m1208 -98 c53 -52 147 -178 147 -198 0 -5 -19 20 -41 55 -50 80 -150 181 -207
210 -23 12 -42 24 -42 26 0 15 92 -45 143 -93z m-1276 82 c-3 -3 -12 -4 -19
-1 -8 3 -5 6 6 6 11 1 17 -2 13 -5z m660 0 c-3 -3 -12 -4 -19 -1 -8 3 -5 6 6
6 11 1 17 -2 13 -5z m-714 -11 c-7 -2 -19 -2 -25 0 -7 3 -2 5 12 5 14 0 19 -2
13 -5z m525 0 c-16 -2 -40 -2 -55 0 -16 2 -3 4 27 4 30 0 43 -2 28 -4z m285 0
c-13 -2 -33 -2 -45 0 -13 2 -3 4 22 4 25 0 35 -2 23 -4z m154 1 c-3 -3 -12 -4
-19 -1 -8 3 -5 6 6 6 11 1 17 -2 13 -5z m-1240 -10 c-3 -3 -12 -4 -19 -1 -8 3
-5 6 6 6 11 1 17 -2 13 -5z m216 -1 c-7 -2 -21 -2 -30 0 -10 3 -4 5 12 5 17 0
24 -2 18 -5z m465 0 c-10 -2 -26 -2 -35 0 -10 3 -2 5 17 5 19 0 27 -2 18 -5z
m189 1 c-3 -3 -12 -4 -19 -1 -8 3 -5 6 6 6 11 1 17 -2 13 -5z m502 -36 c123
-59 210 -178 181 -248 -17 -41 -57 -60 -122 -58 l-53 1 63 6 c54 5 68 11 89
35 30 35 27 66 -13 133 -32 55 -98 104 -194 143 -41 17 -61 28 -45 25 17 -4
59 -20 94 -37z m-1241 25 c-21 -2 -55 -2 -75 0 -21 2 -4 4 37 4 41 0 58 -2 38
-4z m470 0 c-10 -2 -26 -2 -35 0 -10 3 -2 5 17 5 19 0 27 -2 18 -5z m-75 -10
c-7 -2 -21 -2 -30 0 -10 3 -4 5 12 5 17 0 24 -2 18 -5z m528 -118 c70 -66 132
-115 173 -136 36 -19 63 -35 61 -37 -17 -18 -249 160 -385 296 -3 2 6 -1 19
-8 13 -7 73 -59 132 -115z m732 17 c58 -70 122 -198 136 -273 16 -89 -9 -161
-69 -197 -21 -12 -20 -10 3 8 114 91 58 317 -126 509 -36 37 -47 53 -27 37 19
-15 56 -53 83 -84z m-1928 80 c-3 -3 -11 0 -18 7 -9 10 -8 11 6 5 10 -3 15 -9
12 -12z m598 11 c-7 -2 -19 -2 -25 0 -7 3 -2 5 12 5 14 0 19 -2 13 -5z m-60
-10 c-7 -2 -19 -2 -25 0 -7 3 -2 5 12 5 14 0 19 -2 13 -5z m-488 -13 c13 -6
15 -9 5 -9 -8 0 -22 4 -30 9 -18 12 -2 12 25 0z m418 3 c-7 -2 -19 -2 -25 0
-7 3 -2 5 12 5 14 0 19 -2 13 -5z m-50 -10 c-7 -2 -19 -2 -25 0 -7 3 -2 5 12
5 14 0 19 -2 13 -5z m-290 -10 c-7 -2 -21 -2 -30 0 -10 3 -4 5 12 5 17 0 24
-2 18 -5z m205 0 c-10 -2 -26 -2 -35 0 -10 3 -2 5 17 5 19 0 27 -2 18 -5z
m275 -30 c-13 -2 -33 -2 -45 0 -13 2 -3 4 22 4 25 0 35 -2 23 -4z m180 0 c-7
-2 -19 -2 -25 0 -7 3 -2 5 12 5 14 0 19 -2 13 -5z m-290 -10 c-7 -2 -21 -2
-30 0 -10 3 -4 5 12 5 17 0 24 -2 18 -5z m344 1 c-3 -3 -12 -4 -19 -1 -8 3 -5
6 6 6 11 1 17 -2 13 -5z m-434 -11 c-7 -2 -21 -2 -30 0 -10 3 -4 5 12 5 17 0
24 -2 18 -5z m-65 -10 c-10 -2 -26 -2 -35 0 -10 3 -2 5 17 5 19 0 27 -2 18 -5z
m-225 -10 c-13 -2 -33 -2 -45 0 -13 2 -3 4 22 4 25 0 35 -2 23 -4z m125 0
c-16 -2 -40 -2 -55 0 -16 2 -3 4 27 4 30 0 43 -2 28 -4z m702 -3 c8 -5 11 -10
5 -10 -5 0 -17 5 -25 10 -8 5 -10 10 -5 10 6 0 17 -5 25 -10z m-322 -7 c-10
-2 -28 -2 -40 0 -13 2 -5 4 17 4 22 1 32 -1 23 -4z m-140 -10 c-10 -2 -26 -2
-35 0 -10 3 -2 5 17 5 19 0 27 -2 18 -5z m255 0 c-7 -2 -21 -2 -30 0 -10 3 -4
5 12 5 17 0 24 -2 18 -5z m-773 -13 c8 -5 11 -10 5 -10 -5 0 -17 5 -25 10 -8
5 -10 10 -5 10 6 0 17 -5 25 -10z m433 3 c-7 -2 -21 -2 -30 0 -10 3 -4 5 12 5
17 0 24 -2 18 -5z m394 1 c-3 -3 -12 -4 -19 -1 -8 3 -5 6 6 6 11 1 17 -2 13
-5z m383 -118 c80 -55 176 -118 215 -138 38 -21 66 -38 62 -38 -21 0 -138 69
-278 167 -86 59 -165 114 -175 121 -16 10 -15 11 6 1 14 -6 90 -57 170 -113z
m-843 108 c-3 -3 -12 -4 -19 -1 -8 3 -5 6 6 6 11 1 17 -2 13 -5z m-310 -10
c-3 -3 -12 -4 -19 -1 -8 3 -5 6 6 6 11 1 17 -2 13 -5z m236 -1 c-7 -2 -21 -2
-30 0 -10 3 -4 5 12 5 17 0 24 -2 18 -5z m627 -8 c33 -19 21 -19 -21 0 -19 8
-27 14 -19 14 8 0 26 -6 40 -14z m-732 -2 c-21 -2 -55 -2 -75 0 -21 2 -4 4 37
4 41 0 58 -2 38 -4z m350 -20 c-10 -2 -26 -2 -35 0 -10 3 -2 5 17 5 19 0 27
-2 18 -5z m195 0 c-7 -2 -21 -2 -30 0 -10 3 -4 5 12 5 17 0 24 -2 18 -5z
m-753 -18 c19 -7 28 -14 20 -14 -8 0 -28 6 -45 14 -39 17 -21 18 25 0z m483 8
c-7 -2 -21 -2 -30 0 -10 3 -4 5 12 5 17 0 24 -2 18 -5z m314 1 c-3 -3 -12 -4
-19 -1 -8 3 -5 6 6 6 11 1 17 -2 13 -5z m-384 -11 c-7 -2 -21 -2 -30 0 -10 3
-4 5 12 5 17 0 24 -2 18 -5z m437 -3 c18 -12 2 -12 -25 0 -13 6 -15 9 -5 9 8
0 22 -4 30 -9z m344 -115 c68 -52 152 -112 187 -135 34 -22 58 -40 52 -40 -13
0 -163 104 -258 179 -44 34 -99 74 -122 88 -24 14 -43 27 -43 29 0 12 72 -36
184 -121z m-841 108 c-7 -2 -21 -2 -30 0 -10 3 -4 5 12 5 17 0 24 -2 18 -5z
m-260 -10 c-7 -2 -21 -2 -30 0 -10 3 -4 5 12 5 17 0 24 -2 18 -5z m165 0 c-10
-2 -28 -2 -40 0 -13 2 -5 4 17 4 22 1 32 -1 23 -4z m707 -38 c33 -18 107 -73
165 -121 91 -76 166 -134 236 -182 11 -7 -1 -2 -25 10 -24 13 -98 68 -165 123
-141 117 -170 138 -251 183 -33 19 -51 31 -40 27 11 -3 47 -21 80 -40z m1015
-74 c0 -37 -5 -49 -39 -82 -21 -22 -47 -39 -57 -39 -13 1 -8 6 13 15 48 21 75
70 70 125 -3 25 -7 54 -11 65 -3 11 0 7 8 -10 8 -16 15 -50 16 -74z m-417 42
c-7 -2 -19 -2 -25 0 -7 3 -2 5 12 5 14 0 19 -2 13 -5z m-8 -143 c13 -6 15 -9
5 -9 -8 0 -22 4 -30 9 -18 12 -2 12 25 0z m720 -156 c-16 -43 -84 -114 -108
-114 -6 0 2 8 18 19 65 40 94 98 97 193 l2 63 3 -60 c3 -38 -2 -74 -12 -101z
m-632 129 c-7 -2 -19 -2 -25 0 -7 3 -2 5 12 5 14 0 19 -2 13 -5z m145 -10
c-21 -2 -57 -2 -80 0 -24 2 -7 4 37 4 44 0 63 -2 43 -4z m-258 -55 c10 -6 7
-7 -10 -2 -14 3 -32 11 -40 16 -10 6 -7 7 10 2 14 -3 32 -11 40 -16z m107 -34
c-3 -3 -12 -4 -19 -1 -8 3 -5 6 6 6 11 1 17 -2 13 -5z m50 -10 c-3 -3 -12 -4
-19 -1 -8 3 -5 6 6 6 11 1 17 -2 13 -5z m66 -11 c-7 -2 -21 -2 -30 0 -10 3 -4
5 12 5 17 0 24 -2 18 -5z m155 -10 c-21 -2 -55 -2 -75 0 -21 2 -4 4 37 4 41 0
58 -2 38 -4z m-438 -18 c14 -8 21 -14 15 -14 -5 0 -21 6 -35 14 -14 8 -20 14
-15 14 6 0 21 -6 35 -14z m287 -91 c-3 -3 -12 -4 -19 -1 -8 3 -5 6 6 6 11 1
17 -2 13 -5z m70 -10 c-3 -3 -12 -4 -19 -1 -8 3 -5 6 6 6 11 1 17 -2 13 -5z
m313 -4 c-8 -5 -22 -9 -30 -9 -10 0 -8 3 5 9 27 12 43 12 25 0z m-252 -7 c-10
-2 -26 -2 -35 0 -10 3 -2 5 17 5 19 0 27 -2 18 -5z m160 -10 c-15 -2 -42 -2
-60 0 -18 2 -6 4 27 4 33 0 48 -2 33 -4z"/>
<path d="M3483 2690 c-89 -66 -138 -225 -130 -420 7 -193 70 -342 197 -470 98
-98 218 -155 490 -231 455 -127 637 -220 751 -382 53 -75 170 -301 259 -497
79 -176 138 -250 198 -250 34 0 108 74 141 141 42 84 54 155 49 279 -11 219
-63 289 -318 425 -157 84 -242 144 -285 203 -53 73 -92 192 -116 359 -11 81
-29 170 -40 199 -26 68 -100 141 -227 220 -151 95 -483 284 -649 369 -130 67
-159 78 -214 82 -60 4 -67 3 -106 -27z m144 -116 c-3 -3 -12 -4 -19 -1 -8 3
-5 6 6 6 11 1 17 -2 13 -5z m126 -1 c-7 -2 -21 -2 -30 0 -10 3 -4 5 12 5 17 0
24 -2 18 -5z m-188 -16 c-77 -46 -138 -152 -151 -261 -19 -156 83 -398 206
-492 51 -39 63 -52 33 -35 -81 44 -174 174 -219 306 -22 65 -27 98 -28 175 0
109 22 178 75 244 29 34 85 77 99 75 3 0 -4 -6 -15 -12z m245 3 c18 -12 2 -12
-25 0 -13 6 -15 9 -5 9 8 0 22 -4 30 -9z m80 -30 c8 -5 11 -10 5 -10 -5 0 -17
5 -25 10 -8 5 -10 10 -5 10 6 0 17 -5 25 -10z m172 -86 c251 -137 356 -213
434 -318 87 -114 121 -217 131 -391 5 -92 3 -116 -11 -143 -15 -29 -72 -70
-82 -59 -3 2 9 10 26 17 53 22 64 58 57 185 -11 195 -56 308 -171 432 -77 83
-197 166 -386 268 -130 70 -138 75 -126 75 4 0 61 -30 128 -66z m-274 19 c-16
-2 -40 -2 -55 0 -16 2 -3 4 27 4 30 0 43 -2 28 -4z m-101 -9 c-3 -3 -12 -4
-19 -1 -8 3 -5 6 6 6 11 1 17 -2 13 -5z m170 0 c-3 -3 -12 -4 -19 -1 -8 3 -5
6 6 6 11 1 17 -2 13 -5z m-252 -49 c-106 -103 -123 -256 -48 -413 37 -76 131
-169 215 -212 37 -19 65 -36 63 -38 -10 -10 -137 70 -191 120 -170 159 -191
419 -44 552 57 51 61 45 5 -9z m292 39 c-3 -3 -12 -4 -19 -1 -8 3 -5 6 6 6 11
1 17 -2 13 -5z m155 -68 c94 -53 226 -156 294 -227 52 -56 135 -205 133 -243
0 -13 -5 -5 -13 20 -51 162 -216 333 -438 454 -40 22 -68 40 -63 40 6 0 45
-20 87 -44z m-295 -12 c-3 -3 -12 -4 -19 -1 -8 3 -5 6 6 6 11 1 17 -2 13 -5z
m120 0 c-3 -3 -12 -4 -19 -1 -8 3 -5 6 6 6 11 1 17 -2 13 -5z m-194 -29 c-65
-40 -88 -85 -87 -175 1 -112 31 -179 113 -260 36 -36 52 -55 35 -43 -178 127
-218 383 -75 480 19 13 39 23 45 23 6 0 -8 -11 -31 -25z m257 15 c18 -12 2
-12 -25 0 -13 6 -15 9 -5 9 8 0 22 -4 30 -9z m73 -31 c302 -154 448 -460 265
-555 -15 -8 -31 -14 -35 -14 -4 1 9 10 30 21 56 30 79 72 75 140 -9 136 -140
292 -332 395 -67 37 -70 47 -3 13z m-225 -95 c-140 -72 -85 -244 107 -336 33
-15 54 -28 47 -28 -25 0 -115 52 -159 93 -80 74 -104 157 -63 224 17 29 80 72
105 72 6 0 -11 -11 -37 -25z m115 19 c-7 -2 -19 -2 -25 0 -7 3 -2 5 12 5 14 0
19 -2 13 -5z m126 -46 c75 -45 134 -114 155 -182 20 -61 17 -90 -13 -126 -20
-23 -20 -23 0 18 25 51 19 92 -25 165 -35 59 -108 119 -181 148 -30 13 -38 18
-20 15 17 -4 54 -21 84 -38z m458 -384 c-2 -16 -4 -5 -4 22 0 28 2 40 4 28 2
-13 2 -35 0 -50z m-494 40 c-7 -2 -19 -2 -25 0 -7 3 -2 5 12 5 14 0 19 -2 13
-5z m-147 -51 c-5 -4 -66 26 -66 33 0 3 16 -3 35 -12 19 -9 33 -18 31 -21z
m44 -12 c8 -5 11 -10 5 -10 -5 0 -17 5 -25 10 -8 5 -10 10 -5 10 6 0 17 -5 25
-10z m570 -60 c-12 -17 -34 -37 -50 -45 -43 -22 -48 -18 -9 8 19 12 43 37 54
54 11 17 21 27 23 22 2 -5 -6 -22 -18 -39z m-483 34 c-3 -3 -12 -4 -19 -1 -8
3 -5 6 6 6 11 1 17 -2 13 -5z m-257 -30 c0 -2 -9 0 -20 6 -11 6 -20 13 -20 16
0 2 9 0 20 -6 11 -6 20 -13 20 -16z m313 19 c-7 -2 -19 -2 -25 0 -7 3 -2 5 12
5 14 0 19 -2 13 -5z m85 -10 c-10 -2 -28 -2 -40 0 -13 2 -5 4 17 4 22 1 32 -1
23 -4z m90 0 c-10 -2 -26 -2 -35 0 -10 3 -2 5 17 5 19 0 27 -2 18 -5z m-328
-13 c8 -5 11 -10 5 -10 -5 0 -17 5 -25 10 -8 5 -10 10 -5 10 6 0 17 -5 25 -10z
m-70 -35 c14 -8 21 -14 15 -14 -5 0 -21 6 -35 14 -14 8 -20 14 -15 14 6 0 21
-6 35 -14z m187 -1 c-3 -3 -12 -4 -19 -1 -8 3 -5 6 6 6 11 1 17 -2 13 -5z m50
-10 c-3 -3 -12 -4 -19 -1 -8 3 -5 6 6 6 11 1 17 -2 13 -5z m-127 -31 c30 -11
31 -12 6 -8 -16 4 -43 13 -60 20 -23 11 -25 13 -6 8 14 -3 41 -12 60 -20z
m183 20 c-7 -2 -21 -2 -30 0 -10 3 -4 5 12 5 17 0 24 -2 18 -5z m85 -10 c-10
-2 -26 -2 -35 0 -10 3 -2 5 17 5 19 0 27 -2 18 -5z m-201 -29 c-3 -3 -12 -4
-19 -1 -8 3 -5 6 6 6 11 1 17 -2 13 -5z m40 -10 c-3 -3 -12 -4 -19 -1 -8 3 -5
6 6 6 11 1 17 -2 13 -5z m40 -10 c-3 -3 -12 -4 -19 -1 -8 3 -5 6 6 6 11 1 17
-2 13 -5z m46 -11 c-7 -2 -19 -2 -25 0 -7 3 -2 5 12 5 14 0 19 -2 13 -5z m67
-13 c20 -6 21 -8 5 -8 -11 0 -29 3 -40 8 -25 11 1 11 35 0z m57 -16 c-3 -3
-12 -4 -19 -1 -8 3 -5 6 6 6 11 1 17 -2 13 -5z m68 -14 c13 -5 14 -9 5 -9 -8
0 -24 4 -35 9 -13 5 -14 9 -5 9 8 0 24 -4 35 -9z m62 -16 c-3 -3 -12 -4 -19
-1 -8 3 -5 6 6 6 11 1 17 -2 13 -5z m46 -11 c-7 -2 -19 -2 -25 0 -7 3 -2 5 12
5 14 0 19 -2 13 -5z m95 -10 c-10 -2 -26 -2 -35 0 -10 3 -2 5 17 5 19 0 27 -2
18 -5z"/>
<path d="M4680 4117 c0 -101 47 -242 98 -299 78 -86 155 -102 465 -95 234 5
277 12 326 52 79 67 28 178 -144 315 -62 49 -64 50 -131 50 l-68 0 56 -57
c114 -117 135 -179 77 -227 -17 -14 -35 -26 -41 -26 -6 0 4 10 23 23 67 45 39
129 -82 242 l-48 45 -266 0 -265 -1 0 -22z m101 -130 c19 -70 91 -134 184
-163 24 -7 31 -13 19 -13 -11 -1 -49 13 -83 30 -90 45 -133 110 -144 219 -6
55 -6 55 4 10 5 -25 14 -62 20 -83z m486 -173 c-3 -3 -12 -4 -19 -1 -8 3 -5 6
6 6 11 1 17 -2 13 -5z m-189 -11 c-10 -2 -28 -2 -40 0 -13 2 -5 4 17 4 22 1
32 -1 23 -4z m130 0 c-10 -2 -28 -2 -40 0 -13 2 -5 4 17 4 22 1 32 -1 23 -4z"/>
<path d="M125 3136 c-27 -7 -67 -20 -87 -29 -36 -15 -38 -18 -38 -62 l0 -45
40 20 c21 11 45 20 52 20 7 0 -11 -11 -39 -25 -53 -24 -53 -24 -53 -70 0 -44
1 -45 23 -35 l22 11 -22 -17 c-21 -15 -23 -24 -23 -113 1 -94 1 -95 17 -66 28
54 99 116 130 115 4 -1 -5 -8 -22 -17 -16 -8 -41 -25 -54 -37 -32 -29 -71
-114 -71 -156 0 -49 34 -117 78 -158 20 -20 28 -31 17 -25 -26 15 -59 51 -78
88 -16 29 -16 28 -17 -63 0 -85 2 -96 22 -113 l23 -20 -22 11 c-22 10 -23 9
-23 -24 0 -29 5 -38 30 -51 16 -9 30 -18 30 -21 0 -2 -13 2 -30 11 l-30 16 0
-36 c0 -30 5 -37 38 -54 118 -60 226 -65 468 -20 291 53 327 41 466 -166 135
-199 188 -244 310 -265 80 -14 150 2 215 49 68 49 96 94 101 161 11 153 -132
267 -433 345 -154 41 -242 81 -278 129 -33 43 -79 136 -128 258 -58 147 -105
232 -163 296 -128 140 -305 199 -471 158z m48 -83 c-7 -2 -19 -2 -25 0 -7 3
-2 5 12 5 14 0 19 -2 13 -5z m162 -3 c14 -7 8 -8 -20 -3 -22 3 -42 7 -44 9 -9
8 45 2 64 -6z m129 -60 c95 -65 164 -164 210 -300 60 -181 38 -313 -64 -372
l-35 -21 30 26 c17 15 33 26 37 27 4 0 18 19 30 43 18 34 22 58 22 127 -1 176
-96 363 -232 461 -64 45 -62 53 2 9z m-201 -17 c-13 -2 -35 -2 -50 0 -16 2 -5
4 22 4 28 0 40 -2 28 -4z m-96 -9 c-3 -3 -12 -4 -19 -1 -8 3 -5 6 6 6 11 1 17
-2 13 -5z m160 0 c-3 -3 -12 -4 -19 -1 -8 3 -5 6 6 6 11 1 17 -2 13 -5z m43
-14 c8 -5 11 -10 5 -10 -5 0 -17 5 -25 10 -8 5 -10 10 -5 10 6 0 17 -5 25 -10z
m-271 -4 c-2 -2 -15 -9 -29 -15 -24 -11 -24 -11 -6 3 16 13 49 24 35 12z m388
-81 c153 -176 130 -433 -46 -529 -29 -15 -54 -26 -57 -24 -2 3 14 13 36 23 93
42 160 153 160 266 0 64 -33 167 -71 219 -28 39 -43 54 -108 108 -9 7 -1 5 18
-5 18 -10 49 -36 68 -58z m-229 -12 c-10 -2 -28 -2 -40 0 -13 2 -5 4 17 4 22
1 32 -1 23 -4z m116 -56 c91 -91 101 -241 23 -325 -24 -26 -88 -62 -109 -62
-7 0 10 11 39 24 77 36 108 88 108 180 0 59 -5 80 -29 123 -16 28 -45 63 -65
77 -19 14 -30 26 -23 26 7 0 32 -19 56 -43z m-161 -384 c-7 -2 -21 -2 -30 0
-10 3 -4 5 12 5 17 0 24 -2 18 -5z m-44 -121 c-11 -4 -107 27 -113 37 -3 4 24
-2 59 -14 34 -11 59 -21 54 -23z m198 12 c-3 -3 -12 -4 -19 -1 -8 3 -5 6 6 6
11 1 17 -2 13 -5z m-44 -11 c-7 -2 -19 -2 -25 0 -7 3 -2 5 12 5 14 0 19 -2 13
-5z m247 2 c0 -6 -56 -35 -67 -35 -4 1 8 9 27 20 39 22 40 22 40 15z m-450
-60 c19 -7 28 -14 20 -14 -8 0 -28 6 -45 14 -39 17 -21 18 25 0z m277 -11 c-3
-3 -12 -4 -19 -1 -8 3 -5 6 6 6 11 1 17 -2 13 -5z m-184 -11 c-7 -2 -21 -2
-30 0 -10 3 -4 5 12 5 17 0 24 -2 18 -5z m125 0 c-10 -2 -26 -2 -35 0 -10 3
-2 5 17 5 19 0 27 -2 18 -5z m910 -60 c-10 -2 -28 -2 -40 0 -13 2 -5 4 17 4
22 1 32 -1 23 -4z m-98 -30 c-31 -25 -32 -29 -28 -85 5 -64 36 -113 98 -155
18 -13 29 -23 23 -23 -17 0 -76 49 -101 85 -18 25 -27 52 -30 93 -4 50 -1 60
22 85 14 15 30 27 36 27 6 0 -3 -12 -20 -27z m170 17 c18 -12 2 -12 -25 0 -13
6 -15 9 -5 9 8 0 22 -4 30 -9z m66 -36 c38 -30 74 -82 74 -110 0 -10 -11 4
-25 32 -14 27 -42 61 -62 77 -20 15 -33 27 -29 27 4 0 23 -12 42 -26z m64
-193 c-6 -11 -20 -26 -33 -32 -19 -10 -19 -8 6 18 15 16 28 38 28 49 1 16 2
16 6 2 2 -9 -1 -26 -7 -37z"/>
<path d="M0 1622 c0 -31 5 -52 13 -55 9 -4 9 -6 0 -6 -10 -1 -12 -90 -13 -384
l0 -383 75 -62 c86 -73 154 -159 215 -275 54 -102 101 -154 165 -183 28 -13
43 -24 35 -24 -27 0 -116 58 -141 92 -14 18 -50 78 -80 133 -54 100 -128 189
-220 266 l-49 41 0 -64 c0 -61 2 -67 49 -128 26 -36 83 -123 126 -195 82 -139
107 -170 170 -218 22 -16 34 -28 28 -26 -7 2 -33 20 -57 39 -45 36 -94 102
-164 225 -22 39 -64 104 -94 145 l-53 75 -3 -65 c-3 -60 0 -70 47 -160 27 -52
62 -129 76 -170 43 -120 90 -187 146 -211 17 -6 28 -14 25 -16 -2 -2 -18 2
-34 11 -48 25 -99 93 -128 170 -14 39 -49 118 -78 176 l-51 105 -3 -67 c-2
-42 3 -85 13 -113 19 -57 45 -204 45 -256 l0 -37 546 -1 546 0 33 24 c88 68
112 201 57 318 -37 78 -105 145 -225 219 -122 76 -134 85 -62 47 159 -85 251
-167 298 -266 55 -118 36 -238 -49 -313 l-35 -30 75 0 75 0 21 57 c13 32 25
87 27 123 5 60 2 70 -32 135 -32 60 -83 132 -120 171 -35 36 -133 107 -205
148 -256 148 -348 241 -501 510 -170 298 -351 497 -477 522 l-32 7 0 -51z
m103 -94 c118 -63 242 -208 352 -413 116 -216 196 -313 340 -407 105 -69 120
-83 50 -43 -115 64 -215 155 -284 255 -21 30 -71 114 -111 185 -136 244 -234
356 -375 428 -27 14 -46 26 -41 27 4 0 36 -15 69 -32z m-16 -78 c118 -68 230
-203 323 -390 94 -188 195 -310 333 -399 66 -43 89 -63 45 -40 -50 26 -170
123 -218 176 -63 68 -101 127 -169 260 -29 56 -71 130 -93 165 -54 84 -159
185 -233 225 -33 18 -55 33 -50 33 6 0 33 -14 62 -30z m-37 -90 c8 -5 11 -10
5 -10 -5 0 -17 5 -25 10 -8 5 -10 10 -5 10 6 0 17 -5 25 -10z m117 -83 c72
-68 114 -134 183 -287 80 -179 138 -256 270 -363 35 -28 35 -28 -11 2 -64 41
-161 149 -203 223 -19 35 -53 106 -76 158 -66 151 -142 253 -240 323 l-25 18
25 -12 c13 -7 48 -35 77 -62z m-132 -17 c3 -6 -1 -7 -9 -4 -18 7 -21 14 -7 14
6 0 13 -4 16 -10z m77 -52 c20 -15 52 -52 71 -81 36 -55 94 -193 85 -202 -3
-3 -13 18 -23 47 -35 109 -87 188 -165 252 -44 35 -18 23 32 -16z m231 -473
c37 -74 95 -127 235 -213 173 -106 214 -151 198 -216 -6 -26 -76 -67 -112 -65
-10 0 0 6 24 14 92 28 107 79 45 145 -21 22 -96 75 -168 120 -139 86 -192 135
-232 215 -28 54 -63 151 -62 169 0 6 11 -18 23 -54 13 -36 35 -88 49 -115z
m537 -161 c0 -2 -13 2 -30 11 -16 9 -30 18 -30 21 0 2 14 -2 30 -11 17 -9 30
-18 30 -21z m-180 0 c0 -2 -9 0 -20 6 -11 6 -20 13 -20 16 0 2 9 0 20 -6 11
-6 20 -13 20 -16z m90 -49 c0 -3 -18 4 -40 15 -22 11 -40 23 -40 25 0 3 18 -4
40 -15 22 -11 40 -23 40 -25z m251 -51 c160 -122 196 -235 109 -334 l-32 -35
32 47 c25 36 32 57 33 95 1 90 -58 164 -210 264 -43 28 -80 53 -83 57 -13 15
101 -56 151 -94z m-168 5 c84 -56 144 -116 158 -156 13 -41 -9 -94 -55 -125
-30 -21 -29 -20 5 14 20 20 39 48 43 62 13 54 -34 117 -144 188 -81 54 -87 58
-76 58 4 0 35 -19 69 -41z m-336 -235 c-3 -3 -12 -4 -19 -1 -8 3 -5 6 6 6 11
1 17 -2 13 -5z m373 -84 c-8 -5 -19 -10 -25 -10 -5 0 -3 5 5 10 8 5 20 10 25
10 6 0 3 -5 -5 -10z m-490 -20 c8 -5 11 -10 5 -10 -5 0 -17 5 -25 10 -8 5 -10
10 -5 10 6 0 17 -5 25 -10z m437 4 c-3 -3 -12 -4 -19 -1 -8 3 -5 6 6 6 11 1
17 -2 13 -5z m-44 -11 c-7 -2 -19 -2 -25 0 -7 3 -2 5 12 5 14 0 19 -2 13 -5z
m-336 -9 c-3 -3 -12 -4 -19 -1 -8 3 -5 6 6 6 11 1 17 -2 13 -5z m261 -1 c-10
-2 -28 -2 -40 0 -13 2 -5 4 17 4 22 1 32 -1 23 -4z m-195 -10 c-7 -2 -21 -2
-30 0 -10 3 -4 5 12 5 17 0 24 -2 18 -5z m95 0 c-16 -2 -40 -2 -55 0 -16 2 -3
4 27 4 30 0 43 -2 28 -4z m437 -33 c-3 -5 -12 -10 -18 -10 -7 0 -6 4 3 10 19
12 23 12 15 0z m-148 -46 c-3 -3 -12 -4 -19 -1 -8 3 -5 6 6 6 11 1 17 -2 13
-5z m-49 -11 c-10 -2 -26 -2 -35 0 -10 3 -2 5 17 5 19 0 27 -2 18 -5z m-95
-10 c-13 -2 -33 -2 -45 0 -13 2 -3 4 22 4 25 0 35 -2 23 -4z"/>
<path d="M1425 1300 c-33 -5 -147 -13 -253 -20 -106 -6 -203 -15 -216 -20 -60
-23 -70 -70 -35 -167 40 -107 104 -177 356 -392 174 -149 264 -260 309 -381 9
-25 28 -106 43 -180 l27 -135 47 -3 c26 -2 47 0 47 3 0 3 -9 22 -19 43 -10 20
-36 91 -56 157 -68 217 -122 300 -355 539 -136 140 -190 203 -190 222 0 4 14
-13 31 -37 18 -24 100 -114 183 -199 218 -222 275 -310 336 -510 17 -58 43
-131 57 -162 l26 -58 96 0 96 0 -30 18 c-38 24 -99 91 -121 134 -36 69 -114
252 -109 256 2 3 9 -6 14 -19 89 -228 152 -328 232 -369 34 -18 72 -19 668
-20 l632 0 25 54 c48 104 42 178 -27 358 -27 69 -43 94 -95 146 -42 42 -53 56
-32 45 61 -36 115 -120 161 -251 41 -120 43 -214 5 -294 l-27 -58 153 0 c131
0 155 2 160 16 18 48 -8 114 -91 230 -28 38 -74 116 -104 174 -65 126 -149
217 -249 270 -55 28 -78 34 -145 38 -48 2 -114 -2 -165 -12 -330 -61 -410 -59
-569 20 -119 59 -206 143 -352 339 -138 186 -188 220 -339 229 -36 2 -92 1
-125 -4z m103 -87 c-15 -2 -42 -2 -60 0 -18 2 -6 4 27 4 33 0 48 -2 33 -4z
m-125 -10 c-7 -2 -21 -2 -30 0 -10 3 -4 5 12 5 17 0 24 -2 18 -5z m194 1 c-3
-3 -12 -4 -19 -1 -8 3 -5 6 6 6 11 1 17 -2 13 -5z m-277 -14 c-34 -11 -60 -11
-35 0 11 5 29 8 40 8 16 0 15 -2 -5 -8z m330 0 c8 -5 11 -10 5 -10 -5 0 -17 5
-25 10 -8 5 -10 10 -5 10 6 0 17 -5 25 -10z m-453 -41 c-55 -29 -79 -73 -73
-129 4 -31 3 -40 -4 -30 -16 24 -11 73 10 108 19 31 74 72 95 72 6 -1 -7 -10
-28 -21z m586 -48 c28 -25 76 -79 108 -119 115 -145 190 -215 304 -281 38 -23
65 -41 60 -41 -18 0 -128 71 -194 124 -34 28 -105 103 -157 167 -89 111 -139
162 -194 202 l-25 18 24 -12 c14 -6 47 -32 74 -58z m-300 -18 c-7 -2 -19 -2
-25 0 -7 3 -2 5 12 5 14 0 19 -2 13 -5z m94 1 c-3 -3 -12 -4 -19 -1 -8 3 -5 6
6 6 11 1 17 -2 13 -5z m-173 -23 c-108 -49 -95 -140 44 -296 39 -44 92 -106
117 -137 48 -60 130 -197 122 -204 -2 -3 -17 19 -32 48 -44 84 -96 156 -189
258 -129 143 -169 232 -130 289 19 26 72 61 94 61 8 0 -4 -9 -26 -19z m226 9
c8 -5 11 -10 5 -10 -5 0 -17 5 -25 10 -8 5 -10 10 -5 10 6 0 17 -5 25 -10z
m107 -66 c18 -13 71 -68 118 -123 98 -112 180 -182 296 -252 45 -27 78 -49 74
-49 -18 0 -152 85 -217 137 -38 29 -109 101 -160 158 -50 58 -116 122 -145
142 -29 20 -53 38 -53 41 0 5 42 -21 87 -54z m-149 -143 c-18 -30 4 -88 68
-176 67 -95 86 -132 125 -243 62 -177 109 -253 193 -314 49 -35 39 -37 -14 -2
-74 49 -121 128 -190 317 -32 89 -61 145 -116 228 -75 112 -96 167 -74 194 18
21 22 19 8 -4z m118 -22 c32 -23 84 -63 114 -89 30 -26 93 -73 140 -105 97
-65 107 -74 65 -52 -43 22 -168 113 -253 184 -40 34 -92 71 -115 82 -23 12
-35 21 -26 21 9 0 42 -19 75 -41z m594 -189 c8 -5 11 -10 5 -10 -5 0 -17 5
-25 10 -8 5 -10 10 -5 10 6 0 17 -5 25 -10z m637 3 c-20 -2 -52 -2 -70 0 -17
2 0 4 38 4 39 0 53 -2 32 -4z m-124 -10 c-7 -2 -19 -2 -25 0 -7 3 -2 5 12 5
14 0 19 -2 13 -5z m194 1 c-3 -3 -12 -4 -19 -1 -8 3 -5 6 6 6 11 1 17 -2 13
-5z m-264 -11 c-7 -2 -19 -2 -25 0 -7 3 -2 5 12 5 14 0 19 -2 13 -5z m317 -3
c8 -5 11 -10 5 -10 -5 0 -17 5 -25 10 -8 5 -10 10 -5 10 6 0 17 -5 25 -10z
m-683 -6 c-3 -3 -12 -4 -19 -1 -8 3 -5 6 6 6 11 1 17 -2 13 -5z m316 -1 c-7
-2 -19 -2 -25 0 -7 3 -2 5 12 5 14 0 19 -2 13 -5z m-260 -10 c-7 -2 -19 -2
-25 0 -7 3 -2 5 12 5 14 0 19 -2 13 -5z m190 0 c-7 -2 -21 -2 -30 0 -10 3 -4
5 12 5 17 0 24 -2 18 -5z m-105 -10 c-10 -2 -26 -2 -35 0 -10 3 -2 5 17 5 19
0 27 -2 18 -5z m-398 -59 c0 -2 -13 2 -30 11 -16 9 -30 18 -30 21 0 2 14 -2
30 -11 17 -9 30 -18 30 -21z m150 26 c8 -5 11 -10 5 -10 -5 0 -17 5 -25 10 -8
5 -10 10 -5 10 6 0 17 -5 25 -10z m107 -36 c-3 -3 -12 -4 -19 -1 -8 3 -5 6 6
6 11 1 17 -2 13 -5z m-141 -52 c-5 -4 -86 36 -86 43 0 3 20 -5 45 -17 24 -12
43 -23 41 -26z m181 42 c-3 -3 -12 -4 -19 -1 -8 3 -5 6 6 6 11 1 17 -2 13 -5z
m376 -1 c-13 -2 -35 -2 -50 0 -16 2 -5 4 22 4 28 0 40 -2 28 -4z m105 0 c-10
-2 -26 -2 -35 0 -10 3 -2 5 17 5 19 0 27 -2 18 -5z m-415 -10 c-7 -2 -21 -2
-30 0 -10 3 -4 5 12 5 17 0 24 -2 18 -5z m175 0 c-10 -2 -28 -2 -40 0 -13 2
-5 4 17 4 22 1 32 -1 23 -4z m382 -62 c85 -121 54 -291 -64 -347 -17 -8 -22
-9 -11 -2 42 27 94 89 104 125 24 87 3 178 -57 238 -24 24 -29 34 -15 26 12
-6 31 -24 43 -40z m-720 -1 c19 -11 31 -19 25 -19 -5 0 -26 8 -45 19 -19 11
-30 19 -25 19 6 0 26 -8 45 -19z m70 -30 c8 -5 11 -10 5 -10 -5 0 -17 5 -25
10 -8 5 -10 10 -5 10 6 0 17 -5 25 -10z m50 -20 c8 -5 11 -10 5 -10 -5 0 -17
5 -25 10 -8 5 -10 10 -5 10 6 0 17 -5 25 -10z m80 -30 c8 -5 11 -10 5 -10 -5
0 -17 5 -25 10 -8 5 -10 10 -5 10 6 0 17 -5 25 -10z m71 -33 c19 -12 35 -33
37 -46 4 -24 -27 -65 -63 -83 -11 -6 -3 4 18 22 51 43 48 75 -8 107 -22 13
-35 23 -29 23 6 0 26 -10 45 -23z m-181 -197 c-8 -5 -22 -9 -30 -9 -10 0 -8 3
5 9 27 12 43 12 25 0z m-333 -56 c-3 -3 -12 -4 -19 -1 -8 3 -5 6 6 6 11 1 17
-2 13 -5z m130 0 c-3 -3 -12 -4 -19 -1 -8 3 -5 6 6 6 11 1 17 -2 13 -5z m700
-10 c-3 -3 -12 -4 -19 -1 -8 3 -5 6 6 6 11 1 17 -2 13 -5z m-44 -11 c-7 -2
-19 -2 -25 0 -7 3 -2 5 12 5 14 0 19 -2 13 -5z m-65 -10 c-10 -2 -28 -2 -40 0
-13 2 -5 4 17 4 22 1 32 -1 23 -4z m-115 -10 c-13 -2 -35 -2 -50 0 -16 2 -5 4
22 4 28 0 40 -2 28 -4z m-140 -10 c-7 -2 -21 -2 -30 0 -10 3 -4 5 12 5 17 0
24 -2 18 -5z m-75 -10 c-10 -2 -26 -2 -35 0 -10 3 -2 5 17 5 19 0 27 -2 18 -5z
m-75 -10 c-7 -2 -19 -2 -25 0 -7 3 -2 5 12 5 14 0 19 -2 13 -5z"/>
<path d="M1 148 l-1 -148 25 0 c22 0 25 4 25 39 0 46 -26 198 -39 232 -7 17
-10 -19 -10 -123z"/>
<path d="M5825 142 c-49 -24 -135 -84 -189 -133 -6 -5 175 -9 410 -9 l419 1
-27 24 c-31 27 -64 38 -298 97 -218 55 -240 56 -315 20z"/>
</g>
</svg>
